<svg xmlns="http://www.w3.org/2000/svg" xmlns:xlink="http://www.w3.org/1999/xlink" width="180" zoomAndPan="magnify" viewBox="0 0 135 135.000003" height="180" preserveAspectRatio="xMidYMid meet" version="1.0"><defs><clipPath id="23eef7aaa1"><path d="M 0.496094 8 L 134.503906 8 L 134.503906 127.308594 L 0.496094 127.308594 Z M 0.496094 8 " clip-rule="nonzero"/></clipPath></defs><g clip-path="url(#23eef7aaa1)"><path fill="#ffffff" d="M 134.371094 40.828125 C 134.363281 44.84375 133.894531 48.621094 132.980469 52.089844 L 132.980469 52.1875 L 132.59375 53.460938 C 132.386719 54.140625 132.15625 54.816406 131.910156 55.476562 L 129.820312 62.671875 C 129.59375 63.253906 124.996094 76.335938 124.996094 76.335938 L 126.507812 81.976562 C 127.386719 85.207031 126.875 88.742188 125.09375 91.636719 C 125.042969 91.71875 124.992188 91.800781 124.941406 91.882812 C 125.003906 97.339844 121.402344 102.410156 115.925781 103.949219 C 105.894531 106.769531 92.96875 111.050781 86.769531 114.617188 L 86.714844 114.644531 C 72.777344 122.535156 43.269531 126.527344 37.496094 127.246094 L 36.945312 127.3125 L 36.390625 127.3125 C 30.179688 127.3125 24.910156 122.664062 24.136719 116.5 L 22.84375 106.25 C 22.820312 106.089844 22.804688 105.929688 22.792969 105.769531 C 22.4375 105.808594 22.074219 105.847656 21.691406 105.886719 C 18.628906 106.210938 15.550781 105.207031 13.253906 103.132812 C 10.972656 101.078125 9.660156 98.125 9.660156 95.039062 L 9.660156 69.46875 C 4.53125 68.578125 0.617188 64.097656 0.617188 58.722656 L 0.617188 50.367188 C 0.605469 48.121094 1.3125 45.90625 2.605469 44.066406 C 2.605469 43.828125 2.605469 43.652344 2.605469 43.5625 L 2.605469 43.453125 C 2.605469 40.546875 3.738281 37.808594 5.800781 35.742188 C 7.839844 33.707031 10.652344 32.542969 13.527344 32.542969 C 20.378906 32.542969 23.707031 32.097656 30.863281 30.660156 C 34.074219 30.007812 37.382812 30.832031 39.929688 32.917969 C 40.097656 33.058594 40.261719 33.199219 40.421875 33.347656 C 41.1875 32.488281 41.988281 31.667969 42.820312 30.894531 L 42.90625 30.820312 C 53.042969 21.648438 65.535156 18.476562 75.511719 22.550781 C 76.804688 23.078125 78.328125 23.847656 79.898438 24.949219 C 81.941406 21.570312 84.464844 18.558594 87.386719 16.046875 C 93.828125 10.527344 101.925781 7.71875 109.613281 8.351562 C 120.902344 9.28125 134.164062 18.316406 134.371094 40.722656 Z M 134.371094 40.828125 " fill-opacity="1" fill-rule="nonzero"/></g><path fill="#000000" d="M 31.417969 95.367188 C 27.257812 96.203125 25.136719 96.558594 20.769531 97.011719 C 20.214844 97.074219 19.652344 96.890625 19.238281 96.511719 C 18.820312 96.136719 18.582031 95.601562 18.582031 95.039062 C 18.582031 83.5 18.582031 71.964844 18.582031 60.425781 C 16.113281 60.644531 14.335938 60.707031 11.527344 60.707031 C 10.429688 60.707031 9.542969 59.816406 9.542969 58.71875 L 9.542969 54.523438 C 9.542969 54.523438 9.542969 50.328125 9.542969 50.328125 C 9.523438 49.261719 10.464844 48.328125 11.527344 48.34375 C 11.519531 47.949219 11.535156 43.949219 11.527344 43.449219 C 11.527344 42.925781 11.742188 42.417969 12.117188 42.046875 C 12.488281 41.675781 13 41.464844 13.527344 41.464844 C 21.089844 41.464844 24.925781 40.949219 32.621094 39.40625 C 33.199219 39.289062 33.808594 39.4375 34.269531 39.816406 C 34.730469 40.191406 34.996094 40.757812 34.996094 41.351562 L 34.996094 86.546875 C 35.011719 87.664062 34.085938 88.484375 33.011719 88.570312 L 33.011719 93.421875 C 33.011719 94.367188 32.34375 95.183594 31.417969 95.367188 Z M 125.449219 40.804688 C 125.441406 44.199219 125.050781 47.605469 124.058594 50.851562 C 124.058594 50.851562 124.058594 50.855469 124.058594 50.855469 C 123.753906 51.859375 123.394531 52.824219 122.988281 53.75 C 122.988281 53.75 122.988281 53.75 122.988281 53.753906 C 121.835938 61.363281 117.640625 68.105469 111.0625 71.863281 C 112.84375 71.382812 114.757812 72.515625 115.214844 74.300781 C 115.214844 74.300781 117.890625 84.285156 117.890625 84.285156 C 118.414062 86.210938 117.148438 88.171875 115.207031 88.566406 C 115.207031 88.566406 115.902344 91.160156 115.902344 91.160156 C 116.390625 92.96875 115.316406 94.855469 113.515625 95.359375 C 108.394531 96.800781 91.015625 101.882812 82.320312 106.882812 C 70.6875 113.464844 44.574219 117.371094 36.390625 118.390625 C 34.667969 118.390625 33.203125 117.097656 32.988281 115.382812 C 32.988281 115.382812 31.695312 105.132812 31.695312 105.132812 C 31.484375 103.460938 32.527344 101.917969 34.082031 101.429688 C 34.082031 101.429688 33.679688 98.257812 33.679688 98.257812 C 33.445312 96.394531 34.765625 94.671875 36.625 94.421875 C 47.734375 92.839844 68.96875 89.359375 76.855469 84.464844 C 78.65625 83.492188 80.503906 82.605469 82.375 81.773438 C 87.753906 79.394531 93.3125 77.394531 98.894531 75.554688 C 87.796875 76.367188 81.371094 68.429688 80.851562 57.496094 C 80.847656 57.496094 80.847656 57.5 80.847656 57.5 C 80.417969 59.65625 79.804688 61.738281 78.988281 63.761719 C 77.078125 74.765625 69.476562 84.886719 58.90625 88.371094 C 55.007812 89.660156 51.359375 90.015625 47.648438 88.835938 C 35.09375 84.496094 35.195312 65.761719 39.507812 55.152344 C 40.652344 48.472656 44.027344 41.949219 48.890625 37.433594 C 61.964844 25.605469 80.273438 26.390625 81.519531 47.027344 C 81.953125 44.875 82.566406 42.808594 83.367188 40.855469 C 88.410156 12.019531 125.132812 6.699219 125.449219 40.804688 Z M 55.351562 68.050781 C 56.652344 69.710938 58.707031 69.347656 60.441406 68.566406 C 62.421875 67.644531 63.785156 66.214844 64.902344 64.222656 C 65.53125 59.578125 64.917969 52.734375 63.253906 51.222656 C 62.117188 49.855469 60.53125 49.921875 58.90625 50.46875 C 56.710938 51.210938 55.003906 52.710938 53.683594 55.046875 C 53.683594 55.050781 53.683594 55.050781 53.683594 55.054688 C 53.0625 59.800781 53.710938 66.515625 55.351562 68.050781 Z M 97.300781 44.921875 C 97.300781 50.472656 98.347656 52.957031 99.226562 54.0625 C 101.839844 57.324219 107.050781 54.941406 108.804688 51.832031 C 108.914062 50.746094 108.972656 49.585938 108.972656 48.332031 C 108.972656 42.710938 107.898438 40.066406 106.996094 38.835938 C 104.332031 35.230469 99.402344 37.539062 97.5 41.058594 C 97.5 41.0625 97.5 41.0625 97.5 41.0625 C 97.367188 42.335938 97.304688 43.628906 97.300781 44.921875 Z M 97.300781 44.921875 " fill-opacity="1" fill-rule="nonzero"/><path fill="#ff4f63" d="M 120.980469 28.285156 C 119.324219 24.832031 117.03125 22.265625 114.105469 20.726562 C 112.117188 19.683594 109.9375 19.148438 107.570312 19.148438 C 106.453125 19.148438 105.296875 19.269531 104.097656 19.507812 C 100.351562 20.257812 97.015625 22.011719 94.089844 24.652344 C 91.160156 27.292969 88.871094 30.660156 87.210938 34.671875 C 85.554688 38.683594 84.726562 43.132812 84.726562 48 C 84.726562 52.863281 85.554688 56.785156 87.210938 59.785156 C 88.871094 62.789062 91.164062 64.785156 94.089844 65.84375 C 95.757812 66.449219 97.558594 66.742188 99.492188 66.742188 C 100.953125 66.742188 102.488281 66.574219 104.097656 66.253906 C 107.839844 65.503906 111.175781 64.085938 114.105469 61.921875 C 117.03125 59.757812 119.320312 56.960938 120.980469 53.402344 C 122.636719 49.84375 123.464844 45.671875 123.464844 40.808594 C 123.464844 35.941406 122.636719 31.742188 120.980469 28.285156 Z M 110.582031 52.742188 C 109.011719 55.332031 106.851562 56.859375 104.097656 57.40625 C 103.496094 57.527344 102.921875 57.589844 102.378906 57.589844 C 100.464844 57.589844 98.894531 56.839844 97.671875 55.296875 C 96.101562 53.320312 95.316406 49.875 95.316406 44.921875 C 95.316406 39.972656 96.101562 36.101562 97.671875 33.34375 C 99.242188 30.589844 101.382812 28.894531 104.097656 28.351562 C 104.644531 28.242188 105.167969 28.1875 105.667969 28.1875 C 107.6875 28.1875 109.324219 29.070312 110.585938 30.789062 C 112.15625 32.933594 112.941406 36.503906 112.941406 41.457031 C 112.941406 46.40625 112.15625 50.152344 110.582031 52.742188 Z M 50.25 80.074219 C 51.507812 80.484375 52.847656 80.691406 54.257812 80.691406 C 56.125 80.691406 58.125 80.332031 60.257812 79.613281 C 64 78.351562 67.335938 76.269531 70.265625 73.410156 C 73.191406 70.554688 75.484375 67.097656 77.140625 63.03125 C 78.796875 58.964844 79.625 54.507812 79.625 49.644531 C 79.625 44.78125 78.796875 40.867188 77.140625 37.914062 C 75.484375 34.964844 73.191406 33.0625 70.265625 32.21875 C 69.105469 31.886719 67.886719 31.722656 66.601562 31.722656 C 64.636719 31.722656 62.519531 32.105469 60.257812 32.867188 C 56.511719 34.128906 53.175781 36.132812 50.25 38.882812 C 47.320312 41.628906 45.03125 44.957031 43.375 48.914062 C 41.714844 52.875 40.886719 57.269531 40.886719 62.132812 C 40.886719 66.996094 41.714844 70.976562 43.375 74.03125 C 45.03125 77.089844 47.324219 79.121094 50.25 80.074219 Z M 53.832031 47.378906 C 55.402344 44.507812 57.542969 42.628906 60.257812 41.714844 C 61.1875 41.398438 62.054688 41.242188 62.851562 41.242188 C 64.40625 41.242188 65.707031 41.84375 66.746094 43.050781 C 68.316406 44.878906 69.101562 48.265625 69.101562 53.214844 C 69.101562 58.167969 68.316406 62.097656 66.746094 65.003906 C 65.175781 67.914062 63.011719 69.839844 60.257812 70.769531 C 59.371094 71.066406 58.542969 71.214844 57.777344 71.214844 C 56.203125 71.214844 54.890625 70.585938 53.832031 69.332031 C 52.261719 67.46875 51.476562 64.050781 51.476562 59.097656 C 51.476562 54.148438 52.261719 50.25 53.832031 47.378906 Z M 13.527344 43.449219 C 21.316406 43.449219 25.214844 42.917969 33.011719 41.351562 C 33.011719 56.417969 33.011719 71.480469 33.011719 86.546875 C 28.828125 87.386719 26.734375 87.726562 22.550781 88.164062 C 22.550781 75.894531 22.550781 63.628906 22.550781 51.359375 C 18.941406 51.738281 17.132812 51.84375 13.527344 51.84375 C 13.523438 51.84375 13.515625 51.84375 13.511719 51.84375 C 13.511719 48.488281 13.511719 46.808594 13.511719 43.449219 C 13.515625 43.449219 13.523438 43.449219 13.527344 43.449219 Z M 115.972656 84.800781 C 116.179688 85.570312 115.726562 86.359375 114.960938 86.574219 C 109.902344 87.996094 92.238281 93.15625 83.316406 98.285156 C 72.230469 104.660156 45.664062 108.566406 38.570312 109.519531 C 38.503906 109.527344 38.441406 109.53125 38.375 109.53125 C 37.65625 109.53125 37.035156 108.996094 36.941406 108.261719 L 35.648438 98.007812 C 35.550781 97.21875 36.101562 96.496094 36.890625 96.390625 C 46.523438 95.089844 68.8125 91.355469 76.71875 86.808594 C 87.117188 80.832031 106.136719 75.292969 111.507812 73.792969 C 111.636719 73.757812 111.769531 73.738281 111.898438 73.738281 C 112.539062 73.738281 113.121094 74.167969 113.296875 74.816406 Z M 115.972656 84.800781 " fill-opacity="1" fill-rule="nonzero"/></svg>