<svg xmlns="http://www.w3.org/2000/svg" xmlns:xlink="http://www.w3.org/1999/xlink" width="180" zoomAndPan="magnify" viewBox="0 0 135 135.000003" height="180" preserveAspectRatio="xMidYMid meet" version="1.0"><defs><clipPath id="78611b4aef"><path d="M 0.496094 0 L 134.503906 0 L 134.503906 134.007812 L 0.496094 134.007812 Z M 0.496094 0 " clip-rule="nonzero"/></clipPath></defs><g clip-path="url(#78611b4aef)"><path fill="#ffffff" d="M 86.429688 88.53125 C 86.265625 88.472656 86.132812 88.351562 86.011719 88.367188 C 85.3125 88.472656 84.644531 88.472656 83.929688 88.410156 C 83.257812 88.367188 82.53125 88.324219 81.84375 88.679688 C 81.488281 88.859375 81.011719 88.769531 80.578125 88.785156 C 79.3125 88.84375 78.046875 88.992188 76.78125 89.023438 C 76.589844 89.023438 76.410156 89.066406 76.230469 89.125 C 75.234375 89.453125 74.164062 89.214844 73.164062 89.601562 C 72.867188 89.722656 72.421875 89.527344 72.078125 89.394531 C 71.4375 89.140625 70.886719 89.035156 70.1875 89.347656 C 69.5625 89.617188 68.789062 89.5 68.191406 89.976562 C 68.089844 90.050781 67.910156 90.09375 67.789062 90.0625 C 66.988281 89.796875 66.210938 90.289062 65.410156 90.109375 C 65.15625 90.050781 64.855469 90.214844 64.589844 90.316406 C 63.5625 90.71875 62.503906 90.925781 61.386719 90.792969 C 61.164062 90.765625 60.898438 90.75 60.703125 90.839844 C 60.199219 91.0625 59.707031 91.121094 59.183594 90.957031 C 58.679688 90.808594 58.292969 91.242188 57.84375 91.285156 C 57.398438 91.328125 56.890625 91.078125 56.460938 91.152344 C 55.820312 91.269531 55.210938 91.566406 54.480469 91.820312 C 54.480469 92.058594 54.4375 92.386719 54.4375 92.699219 C 54.464844 94.21875 54.480469 95.722656 54.539062 97.238281 C 54.597656 98.996094 54.703125 100.753906 54.777344 102.496094 C 54.835938 104.386719 54.898438 106.292969 54.925781 108.199219 C 54.957031 109.566406 54.808594 110.96875 54.988281 112.320312 C 55.105469 113.257812 54.925781 114.183594 55.105469 115.121094 C 55.210938 115.671875 54.914062 116.296875 54.75 117.117188 C 55.03125 117.53125 55.121094 118.21875 55.046875 118.945312 C 54.898438 120.40625 55.046875 121.878906 54.71875 123.324219 C 54.628906 123.726562 54.792969 124.15625 54.824219 124.589844 C 54.882812 125.808594 54.761719 127.03125 54.675781 128.253906 C 54.613281 129.011719 54.554688 129.832031 54.792969 130.621094 C 55.210938 131.960938 54.898438 133.121094 53.871094 134.089844 C 53.765625 134.175781 53.707031 134.328125 53.617188 134.429688 C 53.066406 135.070312 52.394531 135.160156 51.757812 134.652344 C 51.578125 134.503906 51.441406 134.296875 51.292969 134.117188 C 51.070312 133.851562 50.789062 133.714844 50.429688 133.699219 C 49.777344 133.6875 49.121094 133.613281 48.480469 133.550781 C 47.960938 132.613281 47.855469 131.675781 47.796875 130.738281 C 47.734375 129.933594 47.648438 129.128906 47.675781 128.328125 C 47.722656 126.675781 47.347656 125.050781 47.484375 123.382812 C 47.527344 122.730469 47.347656 122.074219 47.289062 121.402344 C 47.230469 120.75 47.15625 120.078125 47.109375 119.410156 C 47.019531 117.757812 46.960938 116.089844 46.902344 114.4375 C 46.902344 114.109375 46.871094 113.765625 46.902344 113.4375 C 47.019531 112.441406 47.007812 111.472656 46.871094 110.460938 C 46.722656 109.433594 46.8125 108.390625 46.785156 107.347656 C 46.738281 105.832031 46.695312 104.3125 46.648438 102.792969 C 46.648438 102.464844 46.558594 102.109375 46.632812 101.796875 C 46.871094 100.859375 46.664062 99.933594 46.605469 98.996094 C 46.605469 98.804688 46.558594 98.609375 46.605469 98.429688 C 46.828125 97.390625 46.484375 96.375 46.546875 95.335938 C 46.574219 94.902344 46.558594 94.484375 46.546875 94.054688 C 46.53125 93.683594 46.457031 93.308594 46.410156 92.921875 C 45.636719 92.921875 44.953125 92.90625 44.238281 93.132812 C 43.6875 93.308594 43.046875 93.519531 42.4375 93.21875 C 41.347656 93.546875 40.15625 93.175781 39.085938 93.683594 C 38.921875 93.757812 38.730469 93.847656 38.550781 93.832031 C 36.972656 93.769531 35.453125 94.144531 33.933594 94.472656 C 33.652344 94.53125 33.355469 94.605469 33.085938 94.546875 C 32.179688 94.335938 31.328125 94.664062 30.464844 94.785156 C 30.183594 94.8125 29.871094 94.917969 29.632812 94.828125 C 28.84375 94.546875 28.144531 94.796875 27.445312 95.109375 C 27.265625 95.1875 27.085938 95.273438 26.894531 95.273438 C 26.328125 95.273438 25.761719 95.199219 25.210938 95.273438 C 24.703125 95.335938 24.214844 95.632812 23.707031 95.617188 C 22.84375 95.585938 22.023438 95.765625 21.207031 95.988281 C 20.609375 96.152344 20.03125 96.257812 19.375 96.125 C 18.777344 96.003906 18.183594 96.125 17.558594 96.289062 C 16.558594 96.539062 15.503906 96.585938 14.476562 96.660156 C 13.300781 96.765625 12.109375 96.734375 10.933594 96.527344 C 9.90625 96.347656 8.894531 96.125 7.867188 95.945312 C 7.359375 95.855469 6.824219 95.839844 6.316406 95.722656 C 5.46875 95.511719 4.960938 94.738281 5.1875 93.890625 C 5.351562 93.28125 5.273438 92.535156 6.0625 92.042969 C 6.898438 91.941406 7.878906 91.820312 8.863281 91.671875 C 9.132812 91.628906 9.382812 91.480469 9.636719 91.375 C 9.773438 91.316406 9.890625 91.195312 10.011719 91.195312 C 11.664062 91.078125 13.253906 90.585938 14.894531 90.363281 C 15.175781 90.316406 15.472656 90.289062 15.742188 90.332031 C 16.292969 90.4375 16.722656 90.316406 17.199219 90.019531 C 17.542969 89.8125 18.019531 89.824219 18.4375 89.796875 C 19.195312 89.738281 19.953125 89.765625 20.683594 89.511719 C 20.996094 89.410156 21.339844 89.410156 21.667969 89.410156 C 22.292969 89.410156 22.886719 89.410156 23.453125 89.035156 C 23.691406 88.886719 24.09375 88.902344 24.421875 88.949219 C 24.75 88.992188 25.046875 89.171875 25.375 89.289062 C 26.28125 88.574219 27.414062 88.636719 28.472656 88.425781 C 28.710938 88.382812 29.007812 88.558594 29.363281 88.664062 C 29.886719 88.203125 30.570312 87.949219 31.359375 87.890625 C 32.816406 87.757812 34.261719 87.578125 35.691406 87.234375 C 36.125 87.132812 36.628906 87.296875 37.105469 87.324219 C 37.390625 87.339844 37.804688 87.445312 37.925781 87.324219 C 38.445312 86.667969 39.265625 86.9375 39.890625 86.640625 C 40.457031 86.371094 41.199219 86.519531 41.855469 86.355469 C 43.285156 86.03125 44.773438 86.164062 46.203125 85.746094 C 46.605469 85.253906 46.46875 84.675781 46.484375 84.109375 C 46.515625 82.828125 46.515625 81.546875 46.53125 80.269531 C 46.558594 77.617188 46.574219 74.96875 46.605469 72.316406 C 46.648438 69.429688 46.695312 66.542969 46.769531 63.652344 C 46.828125 61.300781 46.886719 58.933594 46.960938 56.582031 C 46.960938 56.207031 47.035156 55.820312 47.082031 55.449219 C 47.109375 55.257812 47.183594 55.078125 47.171875 54.898438 C 46.992188 52.011719 47.335938 49.136719 47.347656 46.25 C 47.347656 45.074219 47.347656 43.882812 47.347656 42.617188 C 46.902344 42.617188 46.425781 42.617188 45.964844 42.585938 C 45.25 42.542969 44.535156 42.707031 43.851562 42.40625 C 43.300781 42.167969 42.839844 42.660156 42.332031 42.585938 C 41.8125 42.527344 41.304688 42.40625 40.785156 42.347656 C 40.664062 42.347656 40.5 42.421875 40.410156 42.511719 C 40.113281 42.808594 39.742188 42.839844 39.355469 42.839844 C 39.070312 42.839844 38.773438 42.824219 38.519531 42.929688 C 38.042969 43.121094 37.628906 43.003906 37.136719 42.929688 C 36.226562 42.78125 35.304688 42.496094 34.382812 43.0625 C 33.890625 43.359375 33.265625 43.183594 32.730469 42.929688 C 32.34375 42.765625 32 42.78125 31.640625 42.988281 C 31.195312 43.269531 30.71875 43.390625 30.167969 43.375 C 29.839844 43.375 29.511719 43.449219 29.1875 43.507812 C 28.664062 43.597656 28.171875 43.644531 27.636719 43.539062 C 26.847656 43.375 26.074219 43.433594 25.269531 43.746094 C 24.6875 43.984375 23.976562 43.972656 23.320312 43.941406 C 22.292969 43.894531 21.265625 43.761719 20.089844 43.644531 C 19.941406 43.746094 19.671875 44.03125 19.34375 44.148438 C 19.046875 44.253906 18.691406 44.222656 18.363281 44.195312 C 17.363281 44.089844 16.398438 44.089844 15.382812 44.238281 C 14.699219 44.34375 13.957031 44.238281 13.269531 44.121094 C 12.734375 44.015625 12.257812 43.984375 11.738281 44.148438 C 10.960938 44.402344 10.203125 44.476562 9.371094 44.164062 C 8.878906 43.984375 8.253906 44.074219 7.703125 44.148438 C 7.121094 44.222656 6.601562 44.148438 6.035156 44.03125 C 4.933594 43.792969 3.785156 43.703125 2.671875 43.496094 C 2.117188 43.390625 1.566406 43.210938 1.046875 43.003906 C 0.71875 42.867188 0.527344 42.570312 0.527344 42.214844 C 0.496094 41.1875 1.300781 40.1875 2.3125 40.160156 C 3.636719 40.113281 4.917969 39.578125 6.273438 39.832031 C 6.453125 39.863281 6.660156 39.800781 6.824219 39.726562 C 7.792969 39.324219 8.773438 39.386719 9.847656 39.726562 C 10.367188 39.429688 10.949219 39.25 11.648438 39.238281 C 12.242188 39.222656 12.839844 38.984375 13.464844 39.132812 C 13.835938 39.222656 14.179688 39.085938 14.550781 38.984375 C 15.308594 38.761719 16.128906 38.597656 16.902344 38.640625 C 17.675781 38.671875 18.40625 38.582031 19.136719 38.417969 C 20.476562 38.105469 21.800781 37.734375 23.214844 38.058594 C 23.542969 38.132812 23.960938 37.972656 24.316406 37.867188 C 25.703125 37.523438 27.101562 37.316406 28.53125 37.613281 C 28.710938 37.644531 28.933594 37.671875 29.082031 37.613281 C 30.242188 37.003906 31.507812 37.269531 32.714844 37.210938 C 33.207031 37.183594 33.636719 37.152344 34.070312 36.867188 C 34.292969 36.71875 34.605469 36.644531 34.871094 36.632812 C 35.632812 36.601562 36.375 36.632812 37.136719 36.632812 C 37.507812 36.632812 37.894531 36.601562 38.265625 36.585938 C 38.59375 36.585938 38.921875 36.527344 39.25 36.554688 C 39.90625 36.632812 40.574219 36.824219 41.140625 36.257812 C 42.019531 36.453125 42.734375 35.722656 43.613281 35.796875 C 44.417969 35.871094 45.207031 35.617188 46.023438 35.828125 C 46.648438 35.992188 47.246094 35.828125 47.734375 35.214844 C 47.765625 34.964844 47.839844 34.636719 47.855469 34.308594 C 47.945312 32.222656 48.003906 30.140625 48.09375 28.070312 C 48.183594 26.03125 48.300781 23.992188 48.4375 21.964844 C 48.570312 19.898438 48.882812 17.8125 48.824219 15.757812 C 48.777344 14.195312 49.105469 12.660156 49 11.082031 C 48.914062 9.789062 49.089844 8.460938 49.105469 7.136719 C 49.136719 5.8125 49.179688 4.472656 49.285156 3.164062 C 49.34375 2.375 49.34375 1.539062 49.878906 0.871094 C 50.042969 0.660156 50.28125 0.496094 50.519531 0.273438 C 51.101562 0.78125 51.679688 1.152344 52.441406 1.167969 C 52.648438 1.167969 52.960938 1.464844 53.035156 1.671875 C 53.320312 2.523438 53.617188 3.386719 53.734375 4.277344 C 53.988281 6.15625 54.136719 8.046875 54.316406 9.9375 C 54.316406 10.085938 54.359375 10.234375 54.316406 10.367188 C 54.078125 11.351562 54.375 12.320312 54.375 13.300781 C 54.375 14.820312 54.421875 16.324219 54.300781 17.84375 C 54.257812 18.347656 54.421875 18.871094 54.421875 19.390625 C 54.421875 21.386719 54.421875 23.378906 54.375 25.375 C 54.347656 27.132812 54.257812 28.875 54.199219 30.632812 C 54.183594 31.195312 54.167969 31.761719 54.199219 32.328125 C 54.242188 33 54.273438 33.652344 54.125 34.308594 C 54.078125 34.515625 54.183594 34.769531 54.226562 35.007812 C 54.972656 35.320312 55.65625 35.441406 56.445312 35.15625 C 56.964844 34.964844 57.59375 35.082031 58.082031 34.859375 C 58.632812 34.605469 59.125 34.917969 59.617188 34.816406 C 60.734375 34.589844 61.910156 34.917969 62.996094 34.472656 C 63.085938 34.441406 63.203125 34.382812 63.265625 34.414062 C 64.261719 34.917969 65.214844 34.367188 66.167969 34.265625 C 66.835938 34.1875 67.476562 34.175781 68.148438 34.203125 C 68.757812 34.234375 69.414062 34.339844 69.980469 34.203125 C 70.589844 34.054688 71.199219 34.039062 71.796875 33.9375 C 72.421875 33.832031 72.972656 33.832031 73.597656 34.011719 C 74.074219 34.144531 74.667969 34.101562 75.144531 33.949219 C 75.800781 33.757812 76.457031 33.757812 77.109375 33.652344 C 77.972656 33.535156 78.808594 33.535156 79.671875 33.90625 C 80.28125 33.25 81.011719 33.3125 81.769531 33.550781 C 82.140625 33.667969 82.5 33.667969 82.886719 33.578125 C 83.4375 33.460938 84.019531 33.476562 84.585938 33.371094 C 85.375 33.238281 86.164062 33.042969 86.875 32.894531 C 87.21875 32.460938 87.265625 32.058594 87.277344 31.613281 C 87.367188 29.378906 87.398438 27.148438 87.621094 24.929688 C 87.742188 23.796875 87.753906 22.664062 87.828125 21.535156 C 87.875 20.925781 87.949219 20.296875 88.007812 19.6875 C 88.15625 18.035156 88.277344 16.382812 88.425781 14.730469 C 88.453125 14.402344 88.558594 14.074219 88.605469 13.746094 C 88.648438 13.285156 88.679688 12.808594 88.691406 12.347656 C 88.691406 12.066406 88.691406 11.769531 88.722656 11.5 C 88.917969 9.890625 89.125 8.300781 89.332031 6.691406 C 89.496094 5.382812 89.734375 4.070312 89.839844 2.746094 C 89.929688 1.644531 90.269531 0.632812 90.523438 -0.425781 C 90.582031 -0.679688 90.820312 -0.902344 91 -1.15625 C 91.296875 -1.140625 91.582031 -1.125 91.863281 -1.109375 C 92.699219 -1.066406 93.113281 -0.617188 93.292969 0.199219 C 93.695312 1.925781 93.992188 3.640625 93.890625 5.425781 C 93.890625 5.664062 93.84375 5.902344 93.875 6.140625 C 94.203125 8.640625 94.097656 11.15625 94.007812 13.671875 C 93.949219 15.714844 94.113281 17.753906 94.113281 19.792969 C 94.113281 21.636719 94.039062 23.5 94.023438 25.347656 C 94.023438 26.089844 94.113281 26.847656 94.113281 27.59375 C 94.113281 28.875 94.054688 30.15625 94.023438 31.433594 C 94.023438 31.671875 93.976562 31.898438 94.023438 32.132812 C 94.066406 32.507812 94.15625 32.863281 94.230469 33.28125 C 94.527344 33.207031 94.753906 33.160156 94.976562 33.085938 C 95.855469 32.804688 96.6875 32.238281 97.683594 32.65625 C 97.730469 32.671875 97.789062 32.65625 97.820312 32.65625 C 99.011719 32.195312 100.277344 32.449219 101.496094 32.269531 C 102.046875 32.195312 102.613281 32.046875 103.179688 32.359375 C 103.328125 32.433594 103.550781 32.386719 103.730469 32.359375 C 104.5625 32.195312 105.398438 31.972656 106.230469 31.851562 C 106.632812 31.792969 107.078125 31.898438 107.480469 32 C 108.136719 32.164062 108.792969 32.222656 109.417969 31.972656 C 109.835938 31.808594 110.234375 31.777344 110.667969 31.851562 C 111.574219 32 112.46875 31.972656 113.332031 31.671875 C 113.707031 31.539062 114.0625 31.507812 114.449219 31.628906 C 115.148438 31.851562 115.835938 31.820312 116.546875 31.597656 C 116.890625 31.496094 117.292969 31.523438 117.664062 31.554688 C 119.554688 31.671875 121.445312 31.332031 123.335938 31.496094 C 123.621094 31.523438 123.933594 31.464844 124.1875 31.554688 C 124.632812 31.703125 124.976562 31.570312 125.390625 31.421875 C 126.507812 31.019531 127.550781 31.375 128.445312 32.058594 C 128.859375 32.386719 129.21875 32.550781 129.726562 32.449219 C 130.4375 32.296875 131.003906 32.65625 131.539062 32.984375 C 131.628906 33.9375 131.703125 34.828125 131.792969 35.765625 C 131.511719 35.960938 131.242188 36.125 130.976562 36.316406 C 130.796875 36.453125 130.542969 36.570312 130.453125 36.765625 C 129.960938 37.835938 128.996094 37.808594 128.132812 37.671875 C 127.402344 37.554688 126.746094 37.582031 126.046875 37.808594 C 124.8125 38.195312 123.515625 38.179688 122.234375 38.089844 C 121.804688 38.058594 121.386719 38.015625 121.015625 38.3125 C 120.597656 38.640625 120.152344 38.625 119.660156 38.449219 C 119.199219 38.285156 118.78125 38.34375 118.289062 38.523438 C 117.695312 38.746094 117.039062 38.835938 116.339844 38.699219 C 115.714844 38.582031 115.03125 38.746094 114.375 38.789062 C 113.675781 38.835938 112.976562 39.011719 112.261719 38.835938 C 112.007812 38.773438 111.664062 38.835938 111.441406 38.953125 C 110.90625 39.265625 110.339844 39.191406 109.773438 39.222656 C 108.777344 39.28125 107.792969 39.28125 106.902344 38.761719 C 106.691406 38.878906 106.5 38.9375 106.378906 39.074219 C 106.050781 39.445312 105.652344 39.550781 105.21875 39.398438 C 104.699219 39.222656 104.207031 39.265625 103.671875 39.371094 C 103.3125 39.445312 102.894531 39.460938 102.539062 39.371094 C 101.78125 39.191406 101.035156 39.222656 100.289062 39.414062 C 100.023438 39.488281 99.664062 39.5625 99.472656 39.445312 C 98.550781 38.894531 97.550781 38.953125 96.554688 38.921875 C 96.40625 38.921875 96.269531 38.921875 96.121094 38.921875 C 95.496094 39.324219 94.855469 39.742188 94.128906 40.203125 C 94.097656 40.890625 94.082031 41.648438 94.039062 42.40625 C 94.007812 43.0625 93.964844 43.734375 93.933594 44.386719 C 93.933594 44.609375 93.949219 44.847656 93.964844 45.074219 C 93.976562 45.355469 94.023438 45.636719 94.023438 45.921875 C 93.976562 47.8125 93.890625 49.71875 93.859375 51.609375 C 93.816406 53.992188 93.859375 56.359375 93.738281 58.738281 C 93.621094 61.34375 93.828125 63.949219 93.621094 66.554688 C 93.5625 67.40625 93.589844 68.222656 93.621094 69.058594 C 93.652344 70.292969 93.53125 71.511719 93.652344 72.75 C 93.710938 73.433594 93.308594 74.179688 93.425781 74.832031 C 93.5625 75.503906 93.605469 76.128906 93.589844 76.800781 C 93.589844 78.035156 93.589844 79.269531 93.621094 80.507812 C 93.636719 81.101562 94.128906 81.339844 94.589844 80.9375 C 95.183594 80.417969 95.839844 80.3125 96.570312 80.355469 C 96.941406 80.386719 97.328125 80.238281 97.699219 80.28125 C 98.011719 80.3125 98.324219 80.476562 98.726562 80.625 C 99.144531 80.269531 99.652344 79.894531 100.320312 80.105469 C 101.257812 79.761719 102.285156 80.269531 103.222656 79.761719 C 103.402344 79.65625 103.683594 79.761719 103.921875 79.761719 C 104.683594 79.761719 105.425781 79.851562 106.171875 79.523438 C 106.441406 79.40625 106.855469 79.433594 107.125 79.554688 C 107.707031 79.804688 108.242188 79.777344 108.761719 79.464844 C 109.195312 79.210938 109.609375 79.0625 110.101562 79.316406 C 110.222656 79.375 110.398438 79.417969 110.503906 79.359375 C 111.21875 79.046875 111.902344 79.300781 112.589844 79.507812 C 112.917969 79.210938 113.183594 78.972656 113.480469 78.703125 C 113.988281 78.792969 114.496094 78.898438 115.089844 79.003906 C 115.597656 78.390625 116.324219 78.214844 117.175781 78.140625 C 118.527344 78.019531 119.824219 78.140625 121.058594 78.585938 C 121.609375 78.40625 121.878906 77.871094 122.472656 77.855469 C 123.023438 77.855469 123.574219 77.601562 124.125 77.648438 C 124.617188 77.691406 125.09375 77.988281 125.644531 78.183594 C 126.167969 77.542969 126.835938 77.289062 127.65625 77.394531 C 127.921875 77.425781 128.207031 77.289062 128.488281 77.246094 C 128.921875 77.171875 129.382812 77.199219 129.710938 77.511719 C 130.542969 78.363281 131.585938 78.511719 132.71875 78.527344 C 133.671875 78.554688 134.308594 79.167969 134.460938 80.089844 C 134.503906 80.402344 134.460938 80.746094 134.429688 81.058594 C 134.308594 81.859375 134.042969 82.605469 133.625 83.289062 C 133.3125 83.8125 132.777344 84.035156 132.179688 84.0625 C 131.855469 84.0625 131.527344 84.0625 131.257812 84.332031 C 130.691406 84.929688 130.023438 84.957031 129.292969 84.675781 C 129.21875 84.644531 129.097656 84.675781 128.921875 84.675781 C 128.148438 85.539062 127.074219 85.554688 125.957031 85.402344 C 125.542969 85.34375 125.09375 85.359375 124.691406 85.449219 C 123.859375 85.628906 123.054688 85.984375 122.222656 86.105469 C 121.121094 86.253906 120.003906 86.757812 118.886719 86.148438 C 118.8125 86.105469 118.691406 86.089844 118.601562 86.117188 C 117.738281 86.476562 116.832031 86.179688 115.953125 86.28125 C 115.34375 86.355469 114.746094 86.507812 114.136719 86.625 C 113.527344 86.730469 112.929688 86.878906 112.320312 86.90625 C 111.636719 86.953125 110.90625 86.609375 110.265625 87.144531 C 110.175781 87.21875 109.96875 87.21875 109.847656 87.175781 C 109.207031 86.847656 108.539062 87.207031 107.882812 87.027344 C 107.75 86.996094 107.570312 86.953125 107.46875 87.027344 C 106.410156 87.578125 105.234375 87.414062 104.117188 87.472656 C 103.417969 87.519531 102.761719 87.785156 102.019531 87.59375 C 101.421875 87.445312 100.753906 87.921875 100.066406 87.742188 C 99.234375 88.097656 98.398438 87.90625 97.550781 87.742188 C 97.132812 87.652344 96.6875 87.667969 96.269531 87.726562 C 95.394531 87.832031 94.515625 87.996094 93.578125 88.144531 C 93.546875 88.320312 93.503906 88.5 93.503906 88.679688 C 93.503906 89.960938 93.503906 91.242188 93.546875 92.519531 C 93.578125 93.949219 93.636719 95.363281 93.652344 96.792969 C 93.652344 97.640625 93.605469 98.492188 93.578125 99.339844 C 93.578125 99.472656 93.53125 99.621094 93.53125 99.757812 C 93.605469 100.933594 93.695312 102.109375 93.753906 103.285156 C 93.753906 103.523438 93.726562 103.761719 93.710938 103.984375 C 93.679688 104.355469 93.578125 104.757812 93.652344 105.117188 C 93.890625 106.203125 93.800781 107.289062 93.816406 108.375 C 93.816406 110.609375 94.039062 112.828125 93.859375 115.0625 C 93.800781 115.851562 94.023438 116.652344 94.054688 117.457031 C 94.097656 118.648438 94.097656 119.824219 94.113281 121.015625 C 94.113281 121.402344 94.097656 121.777344 94.113281 122.164062 C 94.292969 124.082031 93.976562 125.945312 93.5625 127.789062 C 93.308594 128.890625 92.996094 129.980469 92.742188 131.082031 C 92.371094 132.71875 91.761719 132.988281 90.152344 132.449219 C 89.675781 132.285156 89.242188 132.285156 88.769531 132.449219 C 88.320312 132.597656 87.859375 132.734375 87.382812 132.792969 C 86.816406 132.867188 86.355469 132.671875 86.117188 132.09375 C 85.96875 131.75 85.746094 131.421875 85.613281 131.082031 C 85.449219 130.679688 85.34375 130.203125 85.671875 129.859375 C 86.132812 129.367188 86.074219 128.757812 86.027344 128.253906 C 85.96875 127.507812 86.074219 126.777344 85.984375 126.035156 C 85.773438 124.246094 85.761719 122.445312 85.984375 120.644531 C 86.011719 120.449219 86.074219 120.242188 86.011719 120.078125 C 85.699219 119.125 85.984375 118.1875 86.027344 117.25 C 86.164062 114.882812 86.101562 112.515625 86.164062 110.148438 C 86.191406 108.6875 86.074219 107.199219 86.402344 105.757812 C 86.429688 105.621094 86.460938 105.457031 86.429688 105.339844 C 86.148438 104.164062 86.386719 102.972656 86.371094 101.78125 C 86.339844 100.128906 86.445312 98.476562 86.414062 96.824219 C 86.371094 94.367188 86.503906 91.910156 86.429688 89.453125 C 86.429688 89.171875 86.476562 88.902344 86.488281 88.605469 Z M 54.046875 42.167969 C 54.242188 44.683594 53.929688 47.097656 54.109375 49.507812 C 54.152344 50.164062 54.226562 50.847656 54.167969 51.503906 C 54.035156 52.875 54.078125 54.242188 54.078125 55.597656 C 54.078125 58.335938 53.914062 61.09375 54.078125 63.832031 C 54.125 64.679688 54.199219 65.574219 54.019531 66.378906 C 53.808594 67.316406 54.183594 68.164062 54.09375 69.058594 C 54.078125 69.25 54.109375 69.429688 54.109375 69.621094 C 54.125 71.511719 54.109375 73.417969 54.167969 75.308594 C 54.226562 76.960938 53.988281 78.617188 54.242188 80.269531 C 54.273438 80.492188 54.257812 80.746094 54.199219 80.96875 C 54.09375 81.355469 54.078125 81.695312 54.199219 82.085938 C 54.273438 82.292969 54.285156 82.574219 54.210938 82.785156 C 54.019531 83.378906 54.183594 83.902344 54.40625 84.421875 C 54.511719 84.4375 54.597656 84.464844 54.6875 84.480469 C 55.359375 84.554688 55.550781 84.511719 56.386719 84.214844 C 56.59375 84.140625 56.847656 84.152344 57.070312 84.214844 C 57.652344 84.347656 58.171875 84.332031 58.695312 83.945312 C 58.902344 83.796875 59.230469 83.796875 59.511719 83.75 C 60.390625 83.632812 61.210938 83.855469 62.015625 84.257812 C 62.265625 83.988281 62.488281 83.75 62.726562 83.5 C 63.667969 83.5 64.632812 83.140625 65.558594 83.453125 C 66.242188 83.675781 66.851562 83.632812 67.492188 83.410156 C 67.804688 83.304688 68.101562 83.1875 68.414062 83.082031 C 69.085938 82.875 69.726562 82.621094 70.46875 82.636719 C 71.40625 82.648438 72.332031 82.292969 73.285156 82.574219 C 73.359375 82.605469 73.492188 82.574219 73.550781 82.515625 C 73.9375 82.21875 74.339844 82.292969 74.773438 82.367188 C 74.996094 82.410156 75.277344 82.425781 75.441406 82.324219 C 75.84375 82.085938 76.261719 82.097656 76.695312 82.085938 C 77.691406 82.085938 78.6875 82.039062 79.6875 82.085938 C 80.175781 82.097656 80.625 82.085938 81.070312 81.875 C 81.742188 81.578125 82.410156 81.488281 83.140625 81.726562 C 83.4375 81.832031 83.882812 81.859375 84.09375 81.695312 C 84.777344 81.207031 85.582031 81.160156 86.414062 81.058594 C 86.414062 78.988281 86.414062 77.007812 86.414062 75.027344 C 86.414062 71.511719 86.371094 68.015625 86.371094 64.5 C 86.371094 62.042969 86.429688 59.574219 86.398438 57.117188 C 86.371094 54.898438 86.429688 52.664062 86.503906 50.445312 C 86.609375 47.46875 86.683594 44.476562 86.726562 41.5 C 86.726562 41.039062 86.683594 40.578125 86.667969 40.21875 C 85.328125 39.816406 84.152344 40.816406 82.871094 40.324219 C 82.738281 40.261719 82.515625 40.425781 82.335938 40.472656 C 82.15625 40.53125 81.980469 40.652344 81.800781 40.636719 C 80.953125 40.578125 80.101562 40.414062 79.285156 40.816406 C 79.179688 40.859375 79.015625 40.769531 78.867188 40.738281 C 78.40625 40.664062 77.929688 40.578125 77.453125 40.546875 C 77.183594 40.546875 76.871094 40.589844 76.648438 40.726562 C 75.816406 41.246094 74.890625 40.992188 74.011719 41.066406 C 72.957031 40.589844 71.882812 41.277344 70.828125 41.023438 C 70.351562 41.367188 69.800781 41.246094 69.308594 41.203125 C 68.503906 41.140625 67.714844 40.976562 66.925781 41.351562 C 66.777344 41.425781 66.539062 41.394531 66.359375 41.351562 C 65.75 41.1875 65.15625 41.203125 64.53125 41.378906 C 64.261719 41.453125 63.949219 41.46875 63.679688 41.378906 C 63.234375 41.246094 62.847656 41.320312 62.445312 41.5 C 62.28125 41.574219 62.042969 41.691406 61.910156 41.632812 C 61.121094 41.277344 60.300781 41.753906 59.511719 41.484375 C 59.347656 41.425781 59.140625 41.484375 58.960938 41.515625 C 57.710938 41.765625 56.445312 41.917969 55.195312 41.542969 C 54.835938 41.738281 54.511719 41.917969 54.078125 42.15625 Z M 54.046875 42.167969 " fill-opacity="1" fill-rule="nonzero"/></g></svg>