<svg xmlns="http://www.w3.org/2000/svg" xmlns:xlink="http://www.w3.org/1999/xlink" width="180" zoomAndPan="magnify" viewBox="0 0 135 135.000003" height="180" preserveAspectRatio="xMidYMid meet" version="1.0"><defs><clipPath id="0b2722bd98"><path d="M 3.679688 0 L 130.984375 0 L 130.984375 134 L 3.679688 134 Z M 3.679688 0 " clip-rule="nonzero"/></clipPath></defs><g clip-path="url(#0b2722bd98)"><path fill="#ffffff" d="M 16.871094 76.597656 C 16.640625 76.292969 16.566406 75.890625 16.613281 75.382812 C 16.703125 74.371094 16.65625 73.339844 16.6875 72.308594 C 16.6875 72.015625 16.75 71.710938 16.886719 71.464844 C 17.074219 71.109375 17.027344 70.800781 16.886719 70.496094 C 16.671875 70.003906 16.65625 69.511719 16.671875 68.988281 C 16.71875 68.265625 16.671875 67.527344 16.671875 66.804688 C 16.671875 66.464844 16.597656 66.128906 16.871094 65.835938 C 16.949219 65.742188 16.933594 65.480469 16.871094 65.359375 C 16.65625 64.988281 16.734375 64.605469 16.765625 64.234375 C 16.765625 64.113281 16.828125 63.972656 16.765625 63.882812 C 16.441406 63.222656 16.796875 62.652344 17.042969 62.050781 C 16.765625 61.683594 16.84375 61.285156 16.917969 60.820312 C 17.011719 60.34375 16.917969 59.824219 16.886719 59.332031 C 16.886719 59.207031 16.886719 59.085938 16.871094 58.976562 C 16.71875 58.46875 16.84375 58.070312 17.347656 57.777344 C 17.210938 57.59375 17.101562 57.4375 16.996094 57.285156 C 16.65625 56.792969 16.535156 56.269531 16.671875 55.6875 C 16.734375 55.457031 16.734375 55.195312 16.671875 54.980469 C 16.503906 54.316406 16.503906 53.671875 16.671875 53.027344 C 16.765625 52.65625 16.597656 52.347656 16.566406 52.011719 C 16.535156 51.640625 16.425781 51.289062 16.640625 50.933594 C 16.703125 50.828125 16.640625 50.65625 16.640625 50.519531 C 16.625 49.917969 16.613281 49.304688 16.597656 48.703125 C 16.597656 48.503906 16.550781 48.320312 16.535156 48.121094 C 16.535156 47.691406 16.425781 47.273438 16.65625 46.828125 C 16.78125 46.582031 16.75 46.183594 16.65625 45.90625 C 16.304688 44.890625 16.503906 43.875 16.625 42.859375 C 16.671875 42.507812 16.441406 42.03125 17.027344 41.890625 C 16.886719 41.554688 16.78125 41.292969 16.65625 41.015625 C 16.441406 40.507812 16.378906 40 16.535156 39.449219 C 16.625 39.109375 16.519531 38.722656 16.535156 38.371094 C 16.550781 38 16.613281 37.617188 16.671875 37.09375 C 16.394531 36.679688 16.242188 36.078125 16.597656 35.449219 C 16.425781 34.878906 16.886719 34.296875 16.550781 33.726562 C 16.71875 32.773438 16.273438 31.804688 16.582031 30.851562 C 16.613281 30.757812 16.625 30.652344 16.613281 30.558594 C 16.535156 29.757812 16.503906 28.960938 16.703125 28.144531 C 16.796875 27.761719 16.613281 27.328125 16.65625 26.929688 C 16.734375 26.007812 16.6875 25.085938 16.6875 24.175781 C 16.6875 23.761719 16.84375 23.484375 17.335938 23.394531 C 16.734375 22.808594 16.859375 22.148438 16.964844 21.488281 C 16.964844 21.441406 17.042969 21.410156 17.042969 21.363281 C 17.089844 20.546875 17.210938 19.765625 17.519531 18.996094 C 17.625 18.703125 17.320312 18.273438 17.363281 17.933594 C 17.457031 17.042969 17.640625 16.152344 17.78125 15.257812 C 17.796875 15.121094 17.796875 14.964844 17.796875 14.828125 C 17.796875 14.691406 17.734375 14.519531 17.796875 14.398438 C 18.242188 13.367188 18.226562 12.246094 18.503906 11.183594 C 18.519531 11.105469 18.535156 11.046875 18.5625 10.96875 C 19.195312 9.445312 19.640625 7.816406 20.6875 6.492188 C 21.007812 6.078125 21.46875 5.753906 21.792969 5.339844 C 22.269531 4.726562 22.992188 4.449219 23.59375 4.003906 C 24.085938 3.632812 24.699219 3.339844 25.300781 3.1875 C 26.761719 2.804688 28.253906 2.496094 29.726562 2.203125 C 30.144531 2.125 30.589844 2.25 31.019531 2.265625 C 31.160156 2.265625 31.296875 2.234375 31.433594 2.21875 C 31.574219 2.203125 31.726562 2.140625 31.867188 2.140625 C 32.402344 2.140625 32.925781 2.28125 33.480469 1.957031 C 33.847656 1.742188 34.417969 1.847656 34.910156 1.835938 C 36.203125 1.789062 37.507812 1.726562 38.800781 1.710938 C 39.648438 1.710938 40.507812 1.789062 41.355469 1.789062 C 42.0625 1.789062 42.753906 1.679688 43.460938 1.617188 C 43.660156 1.601562 43.84375 1.589844 44.042969 1.574219 C 44.460938 1.574219 44.859375 1.558594 45.273438 1.542969 C 45.304688 1.542969 45.335938 1.542969 45.351562 1.542969 C 46.199219 2.035156 47.042969 1.480469 47.90625 1.542969 C 48.933594 1.589844 49.949219 1.601562 50.980469 1.617188 C 51.410156 1.617188 51.855469 1.632812 52.273438 1.574219 C 53.179688 1.433594 54.070312 1.496094 54.960938 1.664062 C 55.117188 1.695312 55.316406 1.695312 55.453125 1.617188 C 55.777344 1.449219 56.054688 1.449219 56.347656 1.648438 C 56.421875 1.695312 56.546875 1.726562 56.625 1.695312 C 57.40625 1.464844 58.191406 1.527344 58.992188 1.542969 C 59.484375 1.542969 59.960938 1.433594 60.453125 1.402344 C 60.835938 1.386719 61.238281 1.402344 61.621094 1.449219 C 62.050781 1.496094 62.46875 1.296875 62.835938 1.328125 C 63.542969 1.371094 64.234375 1.449219 64.941406 1.34375 C 65.34375 1.28125 65.773438 1.371094 66.171875 1.34375 C 66.558594 1.296875 66.925781 1.066406 67.296875 1.34375 C 67.3125 1.34375 67.355469 1.359375 67.371094 1.34375 C 67.941406 0.988281 68.496094 1.386719 69.0625 1.386719 C 69.109375 1.386719 69.1875 1.417969 69.203125 1.386719 C 69.601562 1.003906 70.171875 1.34375 70.585938 1.050781 C 70.664062 1.003906 70.800781 0.941406 70.863281 0.972656 C 71.449219 1.28125 72.0625 0.957031 72.664062 1.050781 C 73.078125 1.113281 73.523438 0.925781 73.953125 0.894531 C 74.660156 0.851562 75.367188 0.621094 76.074219 0.894531 C 76.152344 0.925781 76.261719 0.894531 76.367188 0.894531 C 76.859375 0.835938 77.367188 0.710938 77.859375 0.710938 C 78.273438 0.710938 78.707031 0.789062 78.84375 1.28125 C 78.980469 1.234375 79.074219 1.21875 79.105469 1.171875 C 79.550781 0.496094 80.242188 0.511719 80.933594 0.511719 C 81.71875 0.511719 82.488281 0.542969 83.273438 0.558594 C 83.320312 0.558594 83.363281 0.558594 83.410156 0.542969 C 84.734375 0.265625 86.070312 0.34375 87.394531 0.402344 C 87.714844 0.402344 88.054688 0.234375 88.378906 0.25 C 89.378906 0.25 90.378906 0.375 91.375 0.34375 C 91.960938 0.328125 92.5625 0.296875 93.160156 0.144531 C 93.699219 0.00390625 94.3125 0.113281 94.898438 0.128906 C 95.359375 0.128906 95.820312 0.203125 96.265625 0.1875 C 97.1875 0.15625 98.113281 0.0507812 99.050781 0.0351562 C 99.648438 0.0351562 100.25 0.15625 100.847656 0.21875 C 101.003906 0.234375 101.171875 0.234375 101.324219 0.21875 C 101.710938 0.171875 102.09375 0.0664062 102.480469 0.0820312 C 103.09375 0.113281 103.695312 0.234375 104.308594 0.3125 C 104.402344 0.3125 104.523438 0.375 104.601562 0.328125 C 105.109375 0.0976562 105.539062 0.265625 106 0.480469 C 106.183594 0.574219 106.445312 0.558594 106.632812 0.496094 C 107.152344 0.34375 107.660156 0.296875 108.214844 0.433594 C 108.753906 0.574219 109.335938 0.527344 109.890625 0.605469 C 110.199219 0.648438 110.492188 0.757812 110.796875 0.835938 C 110.890625 0.867188 111.011719 0.941406 111.058594 0.910156 C 111.488281 0.648438 111.859375 0.988281 112.226562 1.003906 C 113.121094 1.035156 113.949219 1.296875 114.796875 1.511719 C 115.058594 1.574219 115.335938 1.574219 115.582031 1.648438 C 116.164062 1.804688 116.75 1.941406 117.316406 2.140625 C 117.578125 2.234375 117.871094 2.417969 117.996094 2.648438 C 118.148438 2.972656 118.394531 3.09375 118.671875 3.125 C 119.148438 3.15625 119.363281 3.402344 119.5 3.816406 C 119.65625 4.292969 119.949219 4.710938 120.394531 4.957031 C 121.117188 5.339844 121.484375 6.046875 122.007812 6.617188 C 122.5625 7.214844 122.792969 7.984375 122.992188 8.753906 C 123.144531 9.355469 123.269531 9.96875 123.117188 10.613281 C 123.023438 10.984375 122.992188 11.367188 123.191406 11.753906 C 123.285156 11.953125 123.316406 12.261719 123.222656 12.460938 C 123.023438 12.90625 123.160156 13.289062 123.253906 13.722656 C 123.347656 14.152344 123.253906 14.613281 123.253906 15.058594 C 123.238281 15.535156 123.191406 16.011719 123.160156 16.488281 C 123.160156 16.703125 123.160156 16.917969 123.160156 17.164062 C 123.363281 17.257812 123.578125 17.367188 123.808594 17.472656 C 123.730469 17.582031 123.667969 17.671875 123.53125 17.871094 C 123.808594 17.828125 123.992188 17.796875 124.238281 17.765625 C 124.300781 17.855469 124.375 18.058594 124.5 18.117188 C 124.945312 18.363281 125.191406 18.796875 125.484375 19.179688 C 125.683594 19.441406 126.007812 19.625 126.296875 19.796875 C 126.730469 20.039062 127.144531 20.273438 127.296875 20.808594 C 127.34375 20.949219 127.527344 21.039062 127.636719 21.179688 C 127.960938 21.578125 128.3125 21.949219 128.574219 22.394531 C 128.714844 22.625 128.652344 22.949219 128.683594 23.316406 C 129.359375 23.640625 129.605469 24.421875 130.003906 25.054688 C 130.1875 25.347656 130.359375 25.730469 129.820312 26.007812 C 130.757812 26.546875 130.664062 27.484375 130.898438 28.296875 C 130.941406 28.453125 130.972656 28.683594 130.898438 28.804688 C 130.679688 29.113281 130.726562 29.421875 130.789062 29.730469 C 130.972656 30.621094 130.679688 31.480469 130.679688 32.375 C 130.679688 32.527344 130.574219 32.695312 130.496094 32.851562 C 130.359375 33.113281 130.296875 33.359375 130.296875 33.664062 C 130.296875 34.097656 130.097656 34.574219 129.851562 34.941406 C 129.449219 35.570312 129.175781 36.296875 128.558594 36.773438 C 128.480469 36.832031 128.40625 36.910156 128.375 36.988281 C 128.035156 38.0625 127.714844 38.570312 126.898438 39.292969 C 126.867188 39.324219 126.789062 39.339844 126.789062 39.386719 C 126.53125 40.199219 125.714844 40.601562 125.316406 41.292969 C 125.253906 41.398438 125.191406 41.539062 125.097656 41.585938 C 124.347656 41.96875 123.882812 42.707031 123.175781 43.105469 C 122.730469 43.351562 122.222656 43.492188 121.746094 43.675781 C 121.546875 43.753906 121.238281 43.691406 121.332031 44.105469 C 121.347656 44.199219 121.039062 44.398438 120.839844 44.492188 C 120.441406 44.675781 120.023438 44.828125 119.609375 44.953125 C 119.394531 45.015625 119.132812 44.96875 118.902344 44.953125 C 118.5625 44.90625 118.332031 44.921875 118.195312 45.335938 C 118.117188 45.566406 117.71875 45.691406 117.410156 45.890625 C 117.671875 46.089844 117.964844 46.246094 118.179688 46.488281 C 118.734375 47.136719 119.457031 47.597656 119.933594 48.351562 C 120.238281 48.84375 120.808594 49.179688 121.238281 49.597656 C 121.410156 49.765625 121.53125 49.964844 121.65625 50.164062 C 121.761719 50.351562 121.824219 50.566406 121.902344 50.765625 C 121.929688 50.828125 121.976562 50.886719 122.023438 50.949219 C 122.207031 51.195312 122.640625 50.8125 122.777344 51.226562 C 122.871094 51.472656 122.929688 51.796875 123.132812 51.917969 C 123.730469 52.347656 124.101562 52.980469 124.605469 53.503906 C 125.253906 54.164062 125.820312 54.902344 126.421875 55.609375 C 126.4375 55.625 126.46875 55.640625 126.46875 55.65625 C 126.746094 56.792969 127.882812 57.207031 128.46875 58.070312 C 128.683594 58.375 128.820312 58.636719 128.46875 58.976562 C 129.3125 59.253906 129.742188 59.867188 130.082031 60.558594 C 130.171875 60.761719 130.328125 61.023438 130.265625 61.175781 C 130.082031 61.667969 130.28125 62.066406 130.496094 62.542969 C 130.066406 62.636719 129.898438 62.882812 129.804688 63.28125 C 129.683594 63.835938 129.128906 64.035156 128.667969 64.234375 C 128.527344 64.296875 128.234375 64.144531 128.082031 64.003906 C 127.867188 63.820312 127.667969 63.574219 127.542969 63.3125 C 127.3125 62.789062 126.882812 62.5 126.453125 62.160156 C 125.851562 61.714844 125.269531 61.238281 124.882812 60.558594 C 124.714844 60.253906 124.4375 60.023438 124.191406 59.761719 C 123.683594 59.222656 123.175781 58.683594 122.652344 58.144531 C 122.578125 58.054688 122.4375 57.976562 122.421875 57.871094 C 122.347656 57.285156 121.945312 57.007812 121.5 56.714844 C 121.164062 56.5 120.871094 56.164062 120.640625 55.824219 C 120.210938 55.179688 119.5625 54.761719 119.039062 54.226562 C 118.625 53.792969 118.210938 53.332031 117.796875 52.886719 C 117.734375 52.808594 117.65625 52.71875 117.578125 52.6875 C 117.070312 52.488281 116.78125 52.148438 116.734375 51.566406 C 116.6875 51.6875 116.582031 51.796875 116.59375 51.917969 C 116.609375 52.765625 116.65625 53.609375 116.6875 54.472656 C 116.6875 54.609375 116.703125 54.777344 116.765625 54.886719 C 116.902344 55.148438 116.855469 55.363281 116.671875 55.5625 C 116.441406 55.808594 116.488281 56.070312 116.625 56.300781 C 116.824219 56.625 116.796875 56.929688 116.765625 57.285156 C 116.734375 57.640625 116.855469 57.992188 116.933594 58.347656 C 116.964844 58.46875 117.085938 58.5625 117.085938 58.667969 C 117.070312 59.269531 117.195312 59.851562 117.242188 60.4375 C 117.304688 61.113281 117.242188 61.789062 117.304688 62.46875 C 117.347656 63.050781 117.394531 63.035156 116.917969 63.453125 C 116.886719 63.726562 117.164062 63.988281 116.917969 64.328125 C 116.8125 64.464844 117.042969 64.867188 117.132812 65.128906 C 117.164062 65.234375 117.332031 65.34375 117.316406 65.417969 C 117.117188 66.21875 117.671875 66.972656 117.394531 67.804688 C 117.257812 68.203125 117.441406 68.695312 117.457031 69.15625 C 117.503906 69.878906 117.578125 70.617188 117.273438 71.308594 C 117.226562 71.402344 117.226562 71.570312 117.273438 71.648438 C 117.503906 72 117.457031 72.339844 117.304688 72.691406 C 117.273438 72.785156 117.195312 72.910156 117.226562 72.96875 C 117.503906 73.617188 117.316406 74.246094 117.273438 74.890625 C 117.242188 75.324219 117.363281 75.769531 117.195312 76.199219 C 117.164062 76.292969 117.148438 76.398438 117.179688 76.492188 C 117.332031 77.074219 117.289062 77.644531 117.242188 78.230469 C 117.195312 78.796875 117.316406 79.398438 117.316406 79.980469 C 117.316406 80.429688 117.210938 80.875 117.148438 81.425781 C 117.503906 81.828125 117.949219 82.304688 118.394531 82.796875 C 118.441406 82.84375 118.503906 82.917969 118.5625 82.933594 C 119.226562 83.089844 119.546875 83.640625 119.980469 84.074219 C 120.285156 84.378906 120.640625 84.65625 120.933594 84.980469 C 121.222656 85.304688 121.484375 85.65625 121.730469 86.011719 C 122.023438 86.441406 122.238281 86.917969 122.578125 87.300781 C 122.808594 87.5625 123.160156 87.746094 123.484375 87.886719 C 123.867188 88.039062 124.175781 88.253906 124.359375 88.625 C 124.777344 89.425781 125.515625 89.945312 126.128906 90.5625 C 126.53125 90.960938 126.945312 91.332031 127.328125 91.730469 C 127.882812 92.316406 128.390625 92.945312 128.972656 93.5 C 129.636719 94.113281 130.160156 94.773438 130.375 95.667969 C 130.40625 95.820312 130.574219 95.976562 130.726562 96.082031 C 131.28125 96.480469 131.3125 97.035156 130.867188 97.558594 C 130.574219 97.898438 130.34375 98.3125 130.144531 98.726562 C 130.003906 99.019531 129.957031 99.375 129.589844 99.433594 C 129.113281 99.527344 128.636719 99.679688 128.175781 99.359375 C 127.5 98.882812 126.773438 98.449219 126.160156 97.898438 C 125.546875 97.359375 125.070312 96.667969 124.5 96.082031 C 124.144531 95.714844 123.792969 95.265625 123.347656 95.082031 C 122.667969 94.789062 122.332031 94.296875 122.007812 93.714844 C 121.902344 93.515625 121.746094 93.300781 121.546875 93.191406 C 120.609375 92.652344 119.640625 92.207031 118.980469 91.269531 C 118.71875 90.898438 118.257812 90.683594 117.933594 90.363281 C 117.703125 90.148438 117.472656 89.886719 117.363281 89.59375 C 117.257812 89.285156 116.734375 89.332031 116.828125 88.902344 C 116.828125 88.871094 116.71875 88.746094 116.6875 88.761719 C 116.148438 88.949219 116.117188 88.441406 115.886719 88.195312 C 115.828125 88.132812 115.734375 88.085938 115.6875 88.039062 C 115.121094 88.839844 114.472656 89.546875 114.027344 90.378906 C 113.304688 91.730469 112.429688 92.992188 111.613281 94.296875 C 111.273438 94.835938 111.011719 95.40625 110.691406 95.945312 C 110.261719 96.667969 109.769531 97.375 109.335938 98.113281 C 108.921875 98.789062 108.554688 99.496094 108.152344 100.1875 C 107.890625 100.632812 107.675781 101.09375 107.382812 101.527344 C 106.984375 102.109375 106.570312 102.695312 106.125 103.234375 C 105.800781 103.617188 105.125 103.632812 104.554688 103.308594 C 103.984375 102.972656 103.449219 102.585938 102.863281 102.28125 C 102.523438 102.09375 102.140625 102.003906 101.773438 101.910156 C 101.339844 101.804688 101.09375 101.480469 101.1875 101.066406 C 101.339844 100.28125 101.464844 99.496094 102.0625 98.851562 C 102.386719 98.511719 102.539062 97.957031 102.648438 97.480469 C 102.785156 96.851562 103.109375 96.480469 103.738281 96.3125 C 103.679688 95.222656 104.078125 94.253906 104.664062 93.328125 C 104.984375 92.808594 105.183594 92.191406 105.476562 91.636719 C 105.691406 91.222656 105.96875 90.839844 106.167969 90.421875 C 106.601562 89.546875 107.015625 88.671875 107.445312 87.792969 C 107.675781 87.347656 107.738281 86.808594 108.183594 86.472656 C 108.246094 86.425781 108.277344 86.285156 108.277344 86.195312 C 108.351562 85.425781 108.800781 84.839844 109.152344 84.195312 C 109.675781 83.257812 110.335938 82.367188 110.582031 81.289062 C 110.644531 81.042969 110.8125 80.796875 110.96875 80.597656 C 111.199219 80.304688 111.246094 80.058594 110.9375 79.765625 C 110.8125 79.644531 110.691406 79.429688 110.707031 79.257812 C 110.765625 78.476562 110.566406 77.691406 110.613281 76.921875 C 110.675781 75.953125 110.414062 75 110.519531 74.046875 C 110.550781 73.816406 110.492188 73.554688 110.445312 73.324219 C 110.304688 72.601562 110.351562 72.125 110.660156 71.449219 C 110.199219 70.894531 110.277344 70.171875 110.335938 69.554688 C 110.398438 68.988281 109.90625 68.324219 110.519531 67.835938 C 110.042969 66.773438 110.136719 65.820312 110.96875 65.003906 C 110.507812 64.757812 110.414062 64.328125 110.414062 63.867188 C 110.414062 63.742188 110.550781 63.589844 110.507812 63.527344 C 110.214844 62.976562 110.476562 62.40625 110.445312 61.835938 C 110.398438 61.097656 110.246094 60.34375 110.550781 59.605469 C 110.582031 59.546875 110.613281 59.453125 110.597656 59.40625 C 110.367188 58.652344 110.628906 57.914062 110.722656 57.175781 C 110.753906 56.945312 110.707031 56.699219 110.691406 56.300781 C 110.476562 56.609375 110.304688 56.777344 110.214844 56.976562 C 109.691406 58.054688 109.183594 59.144531 108.660156 60.222656 C 108.105469 61.328125 107.523438 62.421875 106.984375 63.527344 C 106.523438 64.464844 106.109375 65.433594 105.664062 66.386719 C 105.554688 66.621094 105.386719 66.835938 105.246094 67.066406 C 105.199219 67.140625 105.09375 67.21875 105.078125 67.296875 C 105.046875 68.15625 104.460938 68.789062 104.1875 69.539062 C 104.078125 69.863281 103.894531 70.171875 103.832031 70.496094 C 103.753906 71.015625 103.480469 71.261719 102.957031 71.292969 C 102.785156 71.292969 102.617188 71.339844 102.371094 71.386719 C 102.464844 71.523438 102.523438 71.632812 102.601562 71.769531 C 102.496094 71.925781 102.371094 72.0625 102.15625 71.878906 C 101.785156 71.570312 101.355469 71.308594 101.203125 70.800781 C 101.171875 70.710938 101.125 70.601562 101.0625 70.554688 C 100.664062 70.234375 100.25 69.910156 99.820312 69.585938 C 99.863281 68.816406 99.878906 68.066406 100.328125 67.328125 C 100.679688 66.742188 100.664062 65.941406 101.003906 65.359375 C 101.695312 64.175781 101.894531 62.820312 102.523438 61.636719 C 102.957031 60.851562 103.1875 59.960938 103.539062 59.128906 C 103.664062 58.839844 103.832031 58.578125 103.96875 58.285156 C 104.046875 58.132812 104.09375 57.976562 104.15625 57.824219 C 104.246094 57.578125 104.339844 57.347656 104.433594 57.101562 C 104.554688 56.761719 104.648438 56.425781 104.785156 56.085938 C 105.125 55.300781 105.476562 54.515625 105.816406 53.734375 C 106.0625 53.148438 106.308594 52.5625 106.523438 51.980469 C 106.816406 51.148438 107.167969 50.367188 107.644531 49.628906 C 107.890625 49.242188 108.015625 48.78125 108.246094 48.382812 C 108.691406 47.550781 109.167969 46.734375 109.628906 45.921875 C 109.90625 45.429688 109.753906 45.015625 109.199219 44.953125 C 108.785156 44.90625 108.523438 44.769531 108.324219 44.398438 C 108.246094 44.277344 108.078125 44.199219 107.953125 44.105469 C 107.769531 43.96875 107.570312 43.816406 107.382812 43.675781 C 107.277344 43.597656 107.167969 43.523438 107.046875 43.445312 C 106.984375 43.414062 106.863281 43.414062 106.847656 43.367188 C 106.476562 42.691406 105.753906 42.355469 105.386719 41.691406 C 105.261719 41.460938 105.078125 41.246094 104.878906 41.09375 C 104.648438 40.921875 104.339844 40.847656 104.109375 40.675781 C 103.894531 40.507812 103.738281 40.246094 103.632812 40.125 C 103.554688 39.816406 103.570312 39.585938 103.464844 39.417969 C 103.246094 39.078125 102.910156 38.832031 102.816406 38.371094 C 102.785156 38.171875 102.402344 37.957031 102.140625 37.878906 C 101.800781 37.753906 101.527344 37.679688 101.617188 37.25 C 101.617188 37.21875 101.632812 37.1875 101.617188 37.171875 C 101.050781 36.695312 101.003906 35.957031 100.742188 35.339844 C 100.496094 34.757812 100.28125 34.171875 100.402344 33.527344 C 100.402344 33.480469 100.449219 33.417969 100.433594 33.386719 C 99.988281 32.695312 100.386719 31.941406 100.28125 31.234375 C 100.21875 30.851562 100.386719 30.421875 100.480469 30.019531 C 100.847656 28.40625 101.601562 26.945312 102.480469 25.5625 C 102.742188 25.144531 102.988281 24.714844 103.308594 24.347656 C 103.941406 23.609375 104.539062 22.839844 105.355469 22.269531 C 105.769531 21.980469 106.277344 21.808594 106.523438 21.316406 C 106.585938 21.210938 106.769531 21.101562 106.890625 21.101562 C 107.398438 21.117188 107.660156 20.765625 108.03125 20.519531 C 108.539062 20.179688 109.074219 19.886719 109.613281 19.625 C 110.289062 19.304688 110.984375 18.980469 111.707031 18.765625 C 112.78125 18.425781 113.890625 18.164062 114.980469 17.871094 C 115.132812 17.828125 115.320312 17.886719 115.488281 17.871094 C 115.765625 17.855469 116.042969 17.902344 116.335938 17.71875 C 116.503906 17.613281 116.8125 17.640625 117.042969 17.6875 C 117.578125 17.78125 117.902344 17.566406 117.949219 17.058594 C 117.980469 16.6875 117.980469 16.320312 117.949219 15.949219 C 117.839844 15.058594 118.148438 14.167969 117.980469 13.273438 C 117.949219 13.136719 117.980469 12.96875 118.070312 12.859375 C 118.242188 12.597656 118.210938 12.367188 118.054688 12.105469 C 117.980469 11.984375 117.917969 11.8125 117.933594 11.691406 C 118.164062 10.554688 117.59375 9.523438 117.503906 8.355469 C 116.519531 8.109375 115.550781 7.878906 114.597656 7.617188 C 113.828125 7.402344 113.089844 7.109375 112.304688 6.9375 C 111.765625 6.816406 111.199219 6.847656 110.660156 6.816406 C 110.167969 6.785156 109.691406 6.800781 109.199219 6.753906 C 108.277344 6.679688 107.355469 6.570312 106.445312 6.492188 C 106.246094 6.476562 106.0625 6.523438 105.863281 6.507812 C 105.664062 6.507812 105.429688 6.539062 105.292969 6.449219 C 104.816406 6.109375 104.308594 6.261719 103.816406 6.339844 C 103.277344 6.433594 102.753906 6.507812 102.25 6.214844 C 102.234375 6.214844 102.203125 6.1875 102.1875 6.1875 C 101.511719 6.460938 100.816406 6.109375 100.140625 6.230469 C 99.679688 6.308594 99.234375 6.476562 98.773438 6.277344 C 98.710938 6.246094 98.621094 6.214844 98.558594 6.230469 C 97.742188 6.417969 96.914062 6.339844 96.082031 6.324219 C 95.050781 6.324219 94.019531 6.648438 92.992188 6.292969 C 92.882812 6.246094 92.730469 6.246094 92.621094 6.292969 C 92.097656 6.492188 91.605469 6.371094 91.101562 6.09375 C 90.652344 6.738281 89.960938 6.554688 89.363281 6.585938 C 88.023438 6.664062 86.671875 6.648438 85.316406 6.679688 C 85.226562 6.679688 85.101562 6.648438 85.027344 6.679688 C 84.59375 6.953125 84.132812 6.894531 83.671875 6.816406 C 82.933594 6.695312 82.257812 7.109375 81.535156 7.078125 C 81.289062 7.078125 81.058594 7.046875 80.8125 7.015625 C 80.734375 7.015625 80.660156 6.925781 80.613281 6.9375 C 80.152344 7.199219 79.71875 7.125 79.214844 7.046875 C 78.875 7 78.488281 7.292969 78.105469 7.046875 C 78.058594 7.015625 77.953125 7.046875 77.890625 7.078125 C 77.320312 7.417969 76.691406 7.339844 76.0625 7.386719 C 75.246094 7.445312 74.429688 7.539062 73.601562 7.585938 C 73.261719 7.601562 72.894531 7.632812 72.601562 7.507812 C 72.277344 7.371094 72.0625 7.429688 71.785156 7.585938 C 71.585938 7.691406 71.339844 7.800781 71.109375 7.785156 C 70.726562 7.785156 70.339844 7.664062 69.972656 7.863281 C 69.449219 7.507812 68.972656 7.953125 68.464844 7.9375 C 67.957031 7.9375 67.449219 7.753906 66.957031 7.769531 C 66.480469 7.785156 66.019531 8.03125 65.542969 8.046875 C 63.820312 8.109375 62.097656 8.0625 60.375 8.152344 C 59.636719 8.183594 58.929688 8.152344 58.191406 8.078125 C 57.300781 7.984375 56.421875 8.078125 55.730469 8.878906 C 55.269531 9.414062 54.703125 9.832031 54.238281 10.382812 C 53.777344 10.9375 53.179688 11.382812 52.65625 11.890625 C 52.148438 12.382812 51.6875 12.921875 51.148438 13.351562 C 50.425781 13.921875 49.933594 14.71875 49.210938 15.304688 C 48.628906 15.765625 48.179688 16.398438 47.660156 16.949219 C 47.398438 17.226562 47.183594 17.535156 46.796875 17.71875 C 46.488281 17.871094 46.351562 18.320312 46.074219 18.566406 C 45.414062 19.148438 45.058594 20.027344 44.214844 20.394531 C 44.167969 20.410156 44.136719 20.457031 44.121094 20.503906 C 43.796875 21.269531 43.199219 21.808594 42.644531 22.394531 C 42.351562 22.6875 42.0625 22.960938 41.800781 23.285156 C 40.570312 24.730469 39.355469 26.191406 38.15625 27.652344 C 37.96875 27.882812 37.863281 28.191406 37.632812 28.34375 C 37.203125 28.667969 36.832031 29.007812 36.679688 29.527344 C 36.679688 29.574219 36.632812 29.621094 36.585938 29.652344 C 35.511719 30.28125 35.125 31.496094 34.28125 32.34375 C 33.527344 33.097656 32.910156 34.003906 32.21875 34.804688 C 32.003906 35.050781 31.710938 35.234375 31.449219 35.433594 C 31.40625 35.480469 31.3125 35.511719 31.296875 35.570312 C 31.066406 36.324219 30.464844 36.785156 29.960938 37.324219 C 29.605469 37.710938 29.3125 38.15625 28.976562 38.570312 C 28.757812 38.832031 28.527344 39.09375 28.296875 39.339844 C 27.976562 39.691406 27.636719 40.046875 27.328125 40.417969 C 27.039062 40.785156 26.605469 41 26.328125 41.414062 C 26.070312 41.832031 25.652344 42.152344 25.285156 42.523438 C 24.898438 42.890625 24.5 43.261719 24.132812 43.644531 C 23.886719 43.890625 23.699219 44.167969 23.746094 44.550781 C 23.777344 44.8125 23.699219 45.089844 23.714844 45.351562 C 23.792969 46.199219 23.546875 47.011719 23.808594 47.890625 C 24.039062 48.671875 23.855469 49.582031 23.886719 50.441406 C 23.886719 50.902344 23.976562 51.347656 23.992188 51.8125 C 23.992188 52.132812 23.929688 52.457031 23.824219 52.78125 C 24.085938 53.300781 24.132812 53.871094 24.132812 54.457031 C 24.117188 55.703125 24.160156 56.929688 24.132812 58.175781 C 24.132812 58.4375 23.898438 58.683594 23.730469 58.992188 C 23.808594 59.085938 23.960938 59.253906 24.054688 59.4375 C 24.132812 59.605469 24.238281 59.882812 24.160156 59.976562 C 23.898438 60.328125 24.023438 60.730469 23.914062 61.082031 C 23.808594 61.4375 23.871094 61.730469 24.007812 62.066406 C 24.316406 62.820312 24.53125 63.558594 24.363281 64.421875 C 24.238281 65.050781 24.390625 65.726562 24.421875 66.386719 C 24.453125 66.894531 24.484375 67.402344 24.5 67.894531 C 24.515625 68.804688 24.546875 69.710938 24.5 70.617188 C 24.46875 71.09375 24.285156 71.554688 24.578125 72.03125 C 24.636719 72.125 24.5 72.355469 24.46875 72.507812 C 24.421875 72.785156 24.300781 73.125 24.40625 73.355469 C 24.609375 73.832031 24.636719 74.292969 24.625 74.800781 C 24.609375 75.660156 24.5 76.523438 24.625 77.367188 C 24.730469 78.136719 24.59375 78.90625 24.652344 79.675781 C 24.714844 80.445312 24.882812 81.273438 24.578125 82.074219 C 24.484375 82.304688 24.515625 82.628906 24.609375 82.859375 C 24.777344 83.273438 24.746094 83.640625 24.53125 83.980469 C 24.347656 84.273438 24.332031 84.503906 24.546875 84.78125 C 24.652344 84.902344 24.761719 85.085938 24.761719 85.242188 C 24.761719 85.855469 24.730469 86.472656 24.746094 87.085938 C 24.746094 87.578125 24.839844 88.054688 24.808594 88.546875 C 24.746094 89.5625 24.976562 90.578125 24.898438 91.578125 C 24.839844 92.484375 24.914062 93.375 24.898438 94.269531 C 24.882812 94.761719 24.945312 95.207031 24.976562 95.683594 C 25.007812 96.144531 24.945312 96.605469 24.976562 97.082031 C 25.023438 98.019531 24.945312 98.957031 24.882812 99.894531 C 24.882812 100.019531 24.746094 100.140625 24.683594 100.28125 C 24.484375 100.695312 24.390625 101.09375 24.730469 101.511719 C 24.882812 101.695312 24.960938 102.003906 24.960938 102.25 C 24.960938 102.941406 25.175781 103.648438 24.960938 104.339844 C 24.929688 104.417969 25.007812 104.523438 25.023438 104.617188 C 25.144531 105.292969 25.101562 105.570312 24.808594 106.230469 C 25.238281 106.847656 25.175781 107.523438 24.945312 108.136719 C 24.746094 108.675781 24.636719 109.152344 24.914062 109.660156 C 25.191406 110.167969 25.101562 110.707031 25.113281 111.246094 C 25.128906 111.90625 25.113281 112.566406 25.113281 113.226562 C 25.113281 113.535156 25.039062 113.84375 25.007812 114.152344 C 25.007812 114.242188 24.960938 114.367188 25.007812 114.441406 C 25.269531 114.917969 25.113281 115.335938 24.792969 115.703125 C 25.332031 116.503906 25.238281 117.347656 25.101562 118.164062 C 25.039062 118.488281 25.222656 118.78125 25.113281 119.027344 C 24.976562 119.347656 24.992188 119.609375 25.054688 119.933594 C 25.101562 120.226562 24.992188 120.546875 24.898438 120.839844 C 24.824219 121.085938 24.867188 121.285156 25.039062 121.441406 C 25.316406 121.714844 25.375 122.070312 25.300781 122.394531 C 25.085938 123.300781 25.300781 124.207031 25.269531 125.113281 C 25.269531 125.453125 25.113281 125.777344 25.085938 126.113281 C 25.039062 126.589844 25.054688 127.066406 25.054688 127.527344 C 25.253906 127.589844 25.375 127.636719 25.484375 127.652344 C 26.128906 127.714844 26.777344 127.636719 27.421875 127.820312 C 27.960938 127.976562 28.574219 127.851562 29.160156 127.851562 C 29.421875 127.851562 29.589844 127.992188 29.804688 128.082031 C 30.28125 128.28125 30.820312 128.390625 31.34375 128.4375 C 31.789062 128.46875 32.25 128.34375 32.710938 128.34375 C 33.140625 128.34375 33.589844 128.421875 34.019531 128.453125 C 34.433594 128.484375 34.847656 128.496094 35.25 128.542969 C 35.679688 128.589844 36.0625 128.742188 36.308594 129.128906 C 36.523438 129.480469 36.710938 129.867188 36.988281 130.160156 C 37.339844 130.527344 37.617188 130.988281 38.214844 131.066406 C 38.632812 131.128906 38.707031 131.40625 38.585938 131.835938 C 38.539062 131.988281 38.492188 132.171875 38.554688 132.3125 C 38.738281 132.679688 38.664062 132.925781 38.339844 133.203125 C 37.894531 133.589844 37.480469 133.988281 36.816406 133.757812 C 36.679688 133.710938 36.496094 133.804688 36.292969 133.835938 C 36.292969 133.710938 36.265625 133.589844 36.25 133.449219 C 35.878906 133.910156 35.617188 134.003906 35.15625 133.695312 C 34.941406 133.558594 34.773438 133.527344 34.558594 133.574219 C 34.480469 133.589844 34.386719 133.601562 34.339844 133.574219 C 33.863281 133.21875 33.3125 133.355469 32.804688 133.355469 C 31.941406 133.355469 31.066406 133.125 30.207031 133.433594 C 30.003906 133.511719 29.757812 133.527344 29.542969 133.496094 C 28.421875 133.355469 27.3125 133.464844 26.191406 133.464844 C 25.175781 133.464844 24.160156 133.449219 23.148438 133.433594 C 22.101562 133.417969 21.070312 133.386719 20.023438 133.371094 C 19.886719 133.371094 19.734375 133.433594 19.59375 133.449219 C 18.871094 133.480469 18.132812 133.542969 17.410156 133.496094 C 17.089844 133.480469 16.78125 133.25 16.425781 133.097656 C 16.058594 133.542969 15.535156 133.589844 15.027344 133.589844 C 14.519531 133.589844 14.011719 133.511719 13.503906 133.496094 C 12.953125 133.480469 12.382812 133.496094 11.828125 133.464844 C 10.953125 133.417969 10.074219 133.371094 9.183594 133.3125 C 8.707031 133.28125 8.214844 133.25 7.738281 133.1875 C 7.554688 133.15625 7.261719 133.082031 7.230469 132.957031 C 7.125 132.527344 6.707031 132.386719 6.492188 132.097656 C 6.171875 131.652344 5.738281 131.34375 5.203125 131.171875 C 4.507812 130.957031 4.015625 130.496094 3.785156 129.789062 C 3.679688 129.46875 3.710938 129.144531 4.03125 129.050781 C 4.417969 128.929688 4.570312 128.667969 4.695312 128.328125 C 4.847656 127.882812 5.171875 127.714844 5.601562 127.730469 C 5.925781 127.746094 6.199219 127.683594 6.492188 127.515625 C 6.753906 127.375 7.109375 127.328125 7.414062 127.3125 C 7.96875 127.3125 8.523438 127.375 9.078125 127.375 C 9.460938 127.375 9.859375 127.269531 10.246094 127.269531 C 11.445312 127.269531 12.644531 127.390625 13.84375 127.269531 C 14.734375 127.175781 15.566406 127.527344 16.441406 127.40625 C 16.535156 127.40625 16.625 127.375 16.734375 127.359375 C 16.886719 127.050781 17.042969 126.746094 17.210938 126.421875 C 16.582031 125.824219 16.734375 124.992188 16.597656 124.222656 C 16.535156 123.855469 16.625 123.453125 16.640625 123.070312 C 16.640625 122.992188 16.640625 122.917969 16.625 122.855469 C 16.210938 122.148438 16.582031 121.457031 16.671875 120.777344 C 16.71875 120.5 16.980469 120.253906 17.195312 119.917969 C 17.042969 119.761719 16.886719 119.59375 16.71875 119.441406 C 16.378906 119.085938 16.289062 118.6875 16.503906 118.226562 C 16.71875 117.765625 16.859375 117.304688 16.457031 116.871094 C 16.410156 116.828125 16.394531 116.71875 16.410156 116.65625 C 16.671875 115.765625 16.195312 114.796875 16.8125 113.949219 C 16.425781 113.398438 16.441406 112.8125 16.519531 112.183594 C 16.582031 111.597656 16.519531 111.015625 16.503906 110.414062 C 16.503906 110.214844 16.472656 109.984375 16.550781 109.828125 C 16.949219 109.089844 16.6875 108.367188 16.597656 107.632812 C 16.519531 107.015625 16.597656 106.371094 16.625 105.738281 C 16.625 105.601562 16.703125 105.433594 16.640625 105.308594 C 16.488281 104.984375 16.566406 104.695312 16.613281 104.371094 C 16.65625 104.109375 16.613281 103.847656 16.597656 103.585938 C 16.597656 103.496094 16.582031 103.386719 16.550781 103.292969 C 16.378906 102.742188 16.949219 102.265625 16.6875 101.664062 C 16.457031 101.125 16.703125 100.558594 16.8125 100.003906 C 16.871094 99.632812 16.917969 99.171875 16.75 98.898438 C 16.550781 98.558594 16.796875 98.417969 16.859375 98.160156 C 16.535156 97.710938 16.519531 97.175781 16.582031 96.621094 C 16.65625 95.976562 16.625 95.328125 16.765625 94.667969 C 16.917969 93.945312 16.71875 93.144531 16.703125 92.375 C 16.671875 91.207031 16.410156 90.039062 16.765625 88.886719 C 16.765625 88.839844 16.796875 88.792969 16.78125 88.746094 C 16.351562 87.6875 16.78125 86.578125 16.582031 85.503906 C 16.535156 85.210938 16.703125 84.902344 16.71875 84.59375 C 16.75 84.089844 16.859375 83.582031 16.566406 83.105469 C 16.859375 82.457031 16.613281 81.828125 16.566406 81.183594 C 16.519531 80.121094 16.566406 79.042969 16.625 77.96875 C 16.640625 77.566406 16.765625 77.167969 16.871094 76.597656 Z M 23.484375 37.386719 C 24.40625 36.988281 24.730469 35.988281 25.453125 35.355469 C 25.976562 34.910156 26.300781 34.234375 26.792969 33.742188 C 27.296875 33.21875 27.730469 32.652344 28.128906 32.050781 C 28.453125 31.558594 28.820312 31.097656 29.207031 30.652344 C 30.082031 29.605469 30.972656 28.589844 31.851562 27.546875 C 32.328125 26.992188 32.757812 26.40625 33.234375 25.855469 C 34.25 24.667969 35.265625 23.484375 36.324219 22.347656 C 36.632812 22.007812 36.941406 21.71875 37.171875 21.300781 C 37.246094 21.148438 37.480469 21.070312 37.617188 20.933594 C 37.800781 20.765625 38 20.578125 38.171875 20.378906 C 38.386719 20.132812 38.570312 19.839844 38.816406 19.625 C 39.0625 19.410156 39.324219 19.257812 39.445312 18.886719 C 39.539062 18.625 39.863281 18.441406 40.09375 18.226562 C 40.355469 17.980469 40.617188 17.734375 40.863281 17.472656 C 40.984375 17.335938 41.046875 17.121094 41.199219 16.996094 C 42.308594 16.011719 43.136719 14.71875 44.414062 13.921875 C 44.492188 13.875 44.519531 13.765625 44.597656 13.707031 C 45.503906 12.78125 46.335938 11.753906 47.335938 10.953125 C 48.042969 10.382812 48.597656 9.707031 49.242188 9.109375 C 49.519531 8.847656 49.765625 8.585938 50.089844 8.261719 C 49.597656 8.261719 49.195312 8.261719 48.8125 8.261719 C 48.273438 8.261719 47.734375 8.339844 47.226562 8.03125 C 47.058594 7.921875 46.734375 7.894531 46.582031 7.984375 C 45.921875 8.386719 45.199219 8.199219 44.492188 8.246094 C 43.785156 8.292969 43.0625 8.371094 42.398438 8.214844 C 41.832031 8.09375 41.292969 8.167969 40.769531 8.214844 C 39.507812 8.339844 38.230469 8.371094 36.972656 8.386719 C 36.234375 8.386719 35.511719 8.445312 34.773438 8.460938 C 34.355469 8.460938 33.941406 8.492188 33.527344 8.460938 C 32.894531 8.398438 32.265625 8.246094 31.695312 8.675781 C 31.589844 8.753906 31.417969 8.738281 31.265625 8.753906 C 30.082031 8.953125 28.867188 8.953125 27.683594 9.292969 C 26.699219 9.585938 25.945312 10.09375 25.46875 10.953125 C 24.761719 12.199219 24.453125 13.597656 24.175781 14.980469 C 24.085938 15.503906 24.160156 16.074219 23.746094 16.425781 C 23.792969 16.796875 23.960938 17.164062 23.855469 17.410156 C 23.59375 17.964844 23.652344 18.535156 23.640625 19.101562 C 23.640625 19.304688 23.484375 19.503906 23.421875 19.71875 C 23.378906 19.886719 23.363281 20.070312 23.347656 20.242188 C 23.316406 20.457031 23.175781 20.75 23.269531 20.855469 C 23.59375 21.210938 23.085938 21.316406 23.117188 21.546875 C 23.515625 22.285156 23.515625 22.410156 23.175781 23.253906 C 23.238281 23.65625 23.269531 24.054688 23.253906 24.453125 C 23.238281 24.960938 23.023438 25.515625 23.164062 25.960938 C 23.363281 26.605469 23.101562 27.222656 23.253906 27.851562 C 23.378906 28.390625 22.871094 28.960938 23.222656 29.527344 C 22.929688 29.820312 23.164062 30.113281 23.222656 30.421875 C 23.253906 30.558594 23.191406 30.699219 23.175781 30.851562 C 23.175781 31.003906 23.117188 31.191406 23.164062 31.328125 C 23.4375 32.296875 23.347656 33.203125 22.746094 34.066406 C 22.792969 34.140625 22.824219 34.234375 22.886719 34.3125 C 23.191406 34.695312 23.394531 35.09375 23.070312 35.585938 C 23.007812 35.679688 23.007812 35.832031 23.039062 35.941406 C 23.175781 36.433594 23.347656 36.910156 23.515625 37.402344 Z M 121.714844 22.703125 C 121.191406 23.179688 120.65625 22.933594 120.148438 22.824219 C 120.039062 22.808594 119.949219 22.625 119.902344 22.484375 C 119.703125 22.007812 119.59375 21.933594 119.101562 22.023438 C 118.625 22.117188 118.148438 22.238281 117.65625 22.285156 C 116.6875 22.378906 115.84375 22.824219 114.949219 23.195312 C 114.382812 23.425781 113.671875 23.425781 113.304688 24.054688 C 113.257812 24.148438 113.089844 24.164062 112.980469 24.222656 C 111.996094 24.777344 110.96875 25.269531 110.152344 26.085938 C 109.9375 26.300781 109.753906 26.53125 109.523438 26.699219 C 108.691406 27.269531 108.246094 28.160156 107.722656 28.960938 C 107.277344 29.636719 106.984375 30.4375 106.785156 31.234375 C 106.585938 32.050781 106.386719 32.851562 106.476562 33.695312 C 106.492188 33.867188 106.460938 34.035156 106.476562 34.203125 C 106.507812 34.527344 106.507812 34.863281 106.601562 35.171875 C 106.738281 35.632812 107 36.0625 106.9375 36.570312 C 106.921875 36.710938 107.015625 36.910156 107.109375 37.019531 C 107.507812 37.386719 107.398438 37.785156 107.152344 38.21875 C 107.554688 38.464844 107.9375 38.710938 108.351562 38.957031 C 107.984375 39.386719 108.308594 39.632812 108.554688 39.878906 C 109.03125 40.386719 109.539062 40.863281 110.015625 41.355469 C 110.136719 41.476562 110.183594 41.675781 110.261719 41.847656 C 110.367188 42.078125 110.507812 42.277344 110.8125 42.183594 C 111.257812 42.0625 111.628906 42.136719 112.058594 42.382812 C 112.472656 42.613281 113.027344 42.613281 113.535156 42.675781 C 113.84375 42.707031 114.164062 42.644531 114.472656 42.660156 C 114.902344 42.675781 115.335938 42.785156 115.75 42.753906 C 116.472656 42.691406 117.195312 42.554688 117.917969 42.429688 C 118.257812 42.367188 118.625 42.367188 118.917969 42.230469 C 119.734375 41.832031 120.515625 41.386719 121.316406 40.9375 C 121.410156 40.894531 121.5 40.847656 121.546875 40.769531 C 121.960938 40.0625 122.746094 39.695312 123.175781 38.96875 C 123.484375 38.464844 124.085938 38.140625 124.144531 37.449219 C 124.144531 37.355469 124.253906 37.277344 124.300781 37.203125 C 124.46875 36.878906 124.652344 36.570312 124.808594 36.25 C 124.898438 36.050781 124.945312 35.816406 125.070312 35.648438 C 125.4375 35.171875 125.546875 34.601562 125.730469 34.066406 C 125.945312 33.402344 126.253906 32.757812 126.082031 32.035156 C 126.066406 31.957031 126.175781 31.867188 126.207031 31.773438 C 126.421875 31.203125 126.5 30.589844 126.328125 30.003906 C 126.144531 29.375 125.851562 28.777344 125.621094 28.160156 C 125.4375 27.636719 125.253906 27.097656 125.144531 26.5625 C 125.070312 26.191406 125.054688 25.882812 124.683594 25.636719 C 124.453125 25.484375 124.300781 25.132812 124.238281 24.839844 C 124.113281 24.269531 123.824219 23.839844 123.347656 23.5625 C 122.824219 23.253906 122.269531 22.992188 121.699219 22.703125 Z M 121.714844 22.703125 " fill-opacity="1" fill-rule="nonzero"/></g></svg>