<svg xmlns="http://www.w3.org/2000/svg" xmlns:xlink="http://www.w3.org/1999/xlink" width="180" zoomAndPan="magnify" viewBox="0 0 135 135.000003" height="180" preserveAspectRatio="xMidYMid meet" version="1.0"><defs><clipPath id="2b8192b4ff"><path d="M 0.496094 38 L 93 38 L 93 133.105469 L 0.496094 133.105469 Z M 0.496094 38 " clip-rule="nonzero"/></clipPath><clipPath id="c22e2046fb"><path d="M 36 0.585938 L 134 0.585938 L 134 99 L 36 99 Z M 36 0.585938 " clip-rule="nonzero"/></clipPath></defs><g clip-path="url(#2b8192b4ff)"><path fill="#ffffff" d="M 84.542969 54.164062 L 53.785156 39.480469 C 51.722656 38.492188 49 38 46.273438 38 C 43.550781 38 40.828125 38.492188 38.765625 39.480469 L 8.007812 54.164062 C 3.875 56.136719 0.496094 61.496094 0.496094 66.074219 L 0.496094 101.441406 C 0.496094 106.019531 3.753906 111.617188 7.734375 113.878906 L 39.039062 131.664062 C 41.027344 132.792969 43.652344 133.359375 46.273438 133.359375 C 48.898438 133.359375 51.523438 132.792969 53.511719 131.664062 L 84.816406 113.878906 C 88.796875 111.617188 92.054688 106.019531 92.054688 101.441406 L 92.054688 66.074219 C 92.054688 61.496094 88.675781 56.136719 84.542969 54.164062 Z M 46.273438 55.316406 C 50.296875 55.316406 53.558594 57.179688 53.558594 59.476562 C 53.558594 61.773438 50.296875 63.636719 46.273438 63.636719 C 42.253906 63.636719 38.992188 61.773438 38.992188 59.476562 C 38.992188 57.179688 42.253906 55.316406 46.273438 55.316406 Z M 16.921875 108.398438 C 16.480469 108.617188 16.003906 108.722656 15.519531 108.722656 C 13.390625 108.722656 11.007812 106.714844 9.703125 103.589844 C 8.101562 99.746094 8.738281 95.671875 11.121094 94.484375 C 11.566406 94.261719 12.039062 94.15625 12.527344 94.15625 C 14.652344 94.15625 17.035156 96.164062 18.339844 99.292969 C 19.941406 103.132812 19.308594 107.210938 16.921875 108.398438 Z M 16.921875 85.507812 C 16.480469 85.730469 16.003906 85.835938 15.519531 85.835938 C 13.390625 85.835938 11.007812 83.824219 9.703125 80.699219 C 8.101562 76.859375 8.738281 72.78125 11.121094 71.59375 C 11.566406 71.375 12.039062 71.269531 12.527344 71.269531 C 14.652344 71.269531 17.035156 73.277344 18.339844 76.402344 C 19.941406 80.242188 19.308594 84.320312 16.921875 85.507812 Z M 37.730469 119.839844 C 37.289062 120.0625 36.8125 120.167969 36.328125 120.167969 C 34.199219 120.167969 31.816406 118.160156 30.511719 115.035156 C 28.910156 111.191406 29.546875 107.117188 31.929688 105.929688 C 32.375 105.707031 32.847656 105.601562 33.335938 105.601562 C 35.460938 105.601562 37.84375 107.609375 39.148438 110.734375 C 40.75 114.578125 40.117188 118.652344 37.730469 119.839844 Z M 37.730469 96.953125 C 37.289062 97.171875 36.8125 97.277344 36.328125 97.277344 C 34.199219 97.277344 31.816406 95.269531 30.511719 92.144531 C 28.910156 88.304688 29.546875 84.226562 31.929688 83.039062 C 32.375 82.816406 32.847656 82.714844 33.335938 82.714844 C 35.460938 82.714844 37.84375 84.722656 39.148438 87.847656 C 40.75 91.6875 40.117188 95.765625 37.730469 96.953125 Z M 62.039062 115.035156 C 60.734375 118.160156 58.351562 120.167969 56.222656 120.167969 C 55.738281 120.167969 55.261719 120.0625 54.820312 119.839844 C 52.433594 118.652344 51.800781 114.578125 53.402344 110.734375 C 54.707031 107.609375 57.089844 105.601562 59.214844 105.601562 C 59.703125 105.601562 60.175781 105.707031 60.621094 105.929688 C 63.003906 107.117188 63.640625 111.191406 62.039062 115.035156 Z M 62.039062 92.144531 C 60.734375 95.269531 58.351562 97.277344 56.222656 97.277344 C 55.738281 97.277344 55.261719 97.171875 54.820312 96.953125 C 52.433594 95.765625 51.800781 91.6875 53.402344 87.847656 C 54.707031 84.722656 57.089844 82.714844 59.214844 82.714844 C 59.703125 82.714844 60.175781 82.816406 60.621094 83.039062 C 63.003906 84.226562 63.640625 88.304688 62.039062 92.144531 Z M 82.847656 103.589844 C 81.542969 106.714844 79.160156 108.722656 77.03125 108.722656 C 76.546875 108.722656 76.070312 108.617188 75.628906 108.398438 C 73.242188 107.210938 72.609375 103.132812 74.210938 99.292969 C 75.515625 96.164062 77.898438 94.15625 80.023438 94.15625 C 80.511719 94.15625 80.984375 94.261719 81.429688 94.484375 C 83.8125 95.671875 84.449219 99.746094 82.847656 103.589844 Z M 82.847656 80.699219 C 81.542969 83.824219 79.160156 85.835938 77.03125 85.835938 C 76.546875 85.835938 76.070312 85.730469 75.628906 85.507812 C 73.242188 84.320312 72.609375 80.242188 74.210938 76.402344 C 75.515625 73.277344 77.898438 71.269531 80.023438 71.269531 C 80.511719 71.269531 80.984375 71.375 81.429688 71.59375 C 83.8125 72.78125 84.449219 76.859375 82.847656 80.699219 Z M 85.90625 63.253906 L 48.355469 83.941406 L 48.355469 127.453125 C 48.355469 128.601562 47.425781 129.53125 46.273438 129.53125 C 45.125 129.53125 44.195312 128.601562 44.195312 127.453125 L 44.195312 84.097656 L 6.34375 62.945312 C 5.335938 62.386719 4.976562 61.121094 5.535156 60.117188 C 6.09375 59.113281 7.363281 58.753906 8.367188 59.308594 L 46.132812 80.414062 L 83.894531 59.609375 C 84.902344 59.054688 86.167969 59.417969 86.722656 60.425781 C 87.277344 61.429688 86.914062 62.695312 85.90625 63.253906 Z M 85.90625 63.253906 " fill-opacity="1" fill-rule="nonzero"/></g><g clip-path="url(#c22e2046fb)"><path fill="#ffffff" d="M 121.539062 23.273438 C 120.011719 18.957031 115.230469 14.179688 110.914062 12.652344 L 78.578125 1.214844 C 77.390625 0.792969 76.0625 0.59375 74.695312 0.59375 C 71.085938 0.59375 67.191406 1.976562 64.84375 4.324219 L 39.675781 29.492188 C 38.03125 31.136719 36.800781 33.558594 36.140625 36.121094 L 36.972656 35.722656 C 39.515625 34.507812 42.820312 33.839844 46.273438 33.839844 C 46.585938 33.839844 46.890625 33.851562 47.199219 33.859375 C 48.417969 32.535156 49.835938 31.730469 51.144531 31.730469 C 51.492188 31.730469 51.832031 31.789062 52.160156 31.902344 C 53.417969 32.351562 54.21875 33.609375 54.492188 35.257812 C 54.867188 35.402344 55.230469 35.558594 55.578125 35.722656 L 68.710938 41.992188 C 70.125 39.550781 72.1875 37.972656 74.035156 37.972656 C 74.382812 37.972656 74.722656 38.03125 75.050781 38.144531 C 77.300781 38.945312 78.097656 42.332031 76.992188 45.945312 L 82.410156 48.535156 L 83.480469 47.453125 L 72.179688 7.085938 C 71.871094 5.980469 72.511719 4.832031 73.617188 4.519531 C 74.730469 4.207031 75.875 4.851562 76.1875 5.957031 L 87.597656 46.726562 L 128.097656 58.277344 C 129.203125 58.589844 129.84375 59.742188 129.527344 60.847656 C 129.265625 61.761719 128.429688 62.359375 127.527344 62.359375 C 127.355469 62.359375 94.375 52.980469 87.449219 51.007812 C 89.773438 52.398438 91.835938 54.515625 93.375 56.964844 C 94.679688 57.328125 95.664062 58.0625 96.042969 59.140625 C 96.375 60.078125 96.210938 61.128906 95.660156 62.152344 C 96.015625 63.460938 96.214844 64.785156 96.214844 66.074219 L 96.214844 98.40625 C 99.429688 97.941406 102.660156 96.550781 104.699219 94.515625 L 129.867188 69.34375 C 133.105469 66.109375 134.503906 59.929688 132.976562 55.613281 Z M 70.449219 24.75 C 69.128906 27.664062 66.542969 29.652344 64.292969 29.652344 C 63.945312 29.652344 63.605469 29.601562 63.28125 29.503906 C 60.847656 28.765625 60.109375 25.433594 61.636719 22.066406 C 62.957031 19.152344 65.542969 17.164062 67.792969 17.164062 C 68.140625 17.164062 68.480469 17.214844 68.804688 17.3125 C 71.242188 18.054688 71.976562 21.382812 70.449219 24.75 Z M 106.835938 39.234375 C 106.277344 39.789062 105.496094 40.054688 104.59375 40.054688 C 102.726562 40.054688 100.335938 38.925781 98.320312 36.910156 C 95.328125 33.917969 94.289062 30.101562 95.996094 28.394531 C 96.558594 27.835938 97.339844 27.570312 98.246094 27.570312 C 100.109375 27.570312 102.5 28.699219 104.515625 30.714844 C 107.507812 33.707031 108.546875 37.519531 106.835938 39.234375 Z M 113.386719 72.554688 C 112 73.09375 110.621094 73.347656 109.375 73.347656 C 107.09375 73.347656 105.269531 72.484375 104.710938 70.910156 C 103.847656 68.476562 106.332031 65.265625 110.257812 63.742188 C 111.644531 63.203125 113.023438 62.945312 114.269531 62.945312 C 116.550781 62.945312 118.375 63.808594 118.933594 65.382812 C 119.796875 67.816406 117.316406 71.027344 113.386719 72.554688 Z M 113.386719 72.554688 " fill-opacity="1" fill-rule="nonzero"/></g></svg>